<svg xmlns="http://www.w3.org/2000/svg" width="494.711" height="494.711" viewBox="0 0 494.711 494.711">
  <g id="Circle" transform="translate(-408.756 101.237)" opacity="0.334">
    <g id="Group_153" data-name="Group 153" transform="translate(408.756 -101.237)">
      <g id="Group_147" data-name="Group 147">
        <path id="Path_202" data-name="Path 202" d="M656.11,393.474c-136.392,0-247.354-110.962-247.354-247.354S519.718-101.237,656.11-101.237,903.467,9.728,903.467,146.12,792.5,393.474,656.11,393.474Zm0-486.413C524.294-92.939,417.054,14.3,417.054,146.12S524.294,385.176,656.11,385.176,895.169,277.935,895.169,146.12,787.929-92.939,656.11-92.939Z" transform="translate(-408.756 101.237)" fill="#fff"/>
      </g>
      <g id="Group_148" data-name="Group 148" transform="translate(27.025 27.025)">
        <path id="Path_203" data-name="Path 203" d="M639.456,349.8c-121.491,0-220.33-98.842-220.33-220.332S517.965-90.867,639.456-90.867,859.788,7.972,859.788,129.465,760.946,349.8,639.456,349.8Zm0-432.367c-116.917,0-212.032,95.118-212.032,212.035S522.539,341.5,639.456,341.5,851.49,246.38,851.49,129.465,756.373-82.569,639.456-82.569Z" transform="translate(-419.126 90.867)" fill="#fff"/>
      </g>
      <g id="Group_149" data-name="Group 149" transform="translate(54.046 54.046)">
        <path id="Path_204" data-name="Path 204" d="M622.8,306.12c-106.589,0-193.308-86.718-193.308-193.308S516.213-80.5,622.8-80.5s193.31,86.718,193.31,193.31S729.395,306.12,622.8,306.12Zm0-378.32c-102.013,0-185.01,83-185.01,185.013s83,185.01,185.01,185.01,185.013-82.994,185.013-185.01S724.818-72.2,622.8-72.2Z" transform="translate(-429.495 80.498)" fill="#fff"/>
      </g>
      <g id="Group_150" data-name="Group 150" transform="translate(81.068 81.071)">
        <path id="Path_205" data-name="Path 205" d="M606.15,262.443c-91.688,0-166.286-74.6-166.286-166.286S514.462-70.128,606.15-70.128,772.438,4.467,772.438,96.158,697.843,262.443,606.15,262.443Zm0-324.274c-87.115,0-157.985,70.874-157.985,157.988S519.035,254.146,606.15,254.146,764.14,183.272,764.14,96.158,693.267-61.83,606.15-61.83Z" transform="translate(-439.864 70.128)" fill="#fff"/>
      </g>
      <g id="Group_151" data-name="Group 151" transform="translate(108.093 108.093)">
        <path id="Path_206" data-name="Path 206" d="M589.5,218.768c-76.789,0-139.261-62.474-139.261-139.264S512.706-59.759,589.5-59.759,728.759,2.713,728.759,79.5,666.287,218.768,589.5,218.768Zm0-270.23c-72.216,0-130.964,58.75-130.964,130.966S517.279,210.471,589.5,210.471,720.461,151.721,720.461,79.5,661.711-51.461,589.5-51.461Z" transform="translate(-450.234 59.759)" fill="#fff"/>
      </g>
      <g id="Group_152" data-name="Group 152" transform="translate(135.115 135.115)">
        <path id="Path_207" data-name="Path 207" d="M572.842,175.091A112.241,112.241,0,1,1,685.084,62.852,112.367,112.367,0,0,1,572.842,175.091Zm0-216.183A103.943,103.943,0,1,0,676.786,62.852,104.062,104.062,0,0,0,572.842-41.092Z" transform="translate(-460.603 49.39)" fill="#fff"/>
      </g>
    </g>
  </g>
</svg>
