<svg xmlns="http://www.w3.org/2000/svg" xmlns:xlink="http://www.w3.org/1999/xlink" width="1920" height="780" viewBox="0 0 1920 780">
  <defs>
    <clipPath id="clip-path">
      <path id="Path_208" data-name="Path 208" d="M0,0H1920V780H0Z" transform="translate(0 3307)" fill="#094781"/>
    </clipPath>
  </defs>
  <g id="Mask_Group_6" data-name="Mask Group 6" transform="translate(0 -3307)" clip-path="url(#clip-path)">
    <g id="Circle" transform="translate(-676.856 3291.137)" opacity="0.128">
      <g id="Group_153" data-name="Group 153" transform="translate(408.756 -101.237)">
        <g id="Group_147" data-name="Group 147">
          <path id="Path_202" data-name="Path 202" d="M643.771,368.8c-129.588,0-235.015-105.427-235.015-235.015S514.183-101.237,643.771-101.237,878.789,4.193,878.789,133.781,773.362,368.8,643.771,368.8Zm0-462.15c-125.24,0-227.132,101.891-227.132,227.134S518.531,360.913,643.771,360.913,870.906,259.021,870.906,133.781,769.014-93.353,643.771-93.353Z" transform="translate(-408.756 101.237)" fill="#fff"/>
        </g>
        <g id="Group_148" data-name="Group 148" transform="translate(25.676 25.676)">
          <path id="Path_203" data-name="Path 203" d="M628.465,327.816c-115.43,0-209.339-93.911-209.339-209.341S513.035-90.867,628.465-90.867,837.806,3.042,837.806,118.474,743.9,327.816,628.465,327.816Zm0-410.8C517.38-82.983,427.01,7.39,427.01,118.474s90.37,201.458,201.455,201.458,201.458-90.375,201.458-201.458S739.55-82.983,628.465-82.983Z" transform="translate(-419.126 90.867)" fill="#fff"/>
        </g>
        <g id="Group_149" data-name="Group 149" transform="translate(51.35 51.35)">
          <path id="Path_204" data-name="Path 204" d="M613.16,286.834c-101.272,0-183.665-82.393-183.665-183.665S511.888-80.5,613.16-80.5,796.827,1.895,796.827,103.169,714.435,286.834,613.16,286.834Zm0-359.449c-96.924,0-175.781,78.857-175.781,175.784S516.235,278.951,613.16,278.951,788.944,200.1,788.944,103.169,710.087-72.614,613.16-72.614Z" transform="translate(-429.495 80.498)" fill="#fff"/>
        </g>
        <g id="Group_150" data-name="Group 150" transform="translate(77.025 77.027)">
          <path id="Path_205" data-name="Path 205" d="M597.855,245.854c-87.114,0-157.991-70.874-157.991-157.991S510.741-70.128,597.855-70.128,755.848.746,755.848,87.863,684.974,245.854,597.855,245.854Zm0-308.1c-82.769,0-150.1,67.338-150.1,150.107s67.336,150.107,150.1,150.107,150.11-67.338,150.11-150.107S680.626-62.244,597.855-62.244Z" transform="translate(-439.864 70.128)" fill="#fff"/>
        </g>
        <g id="Group_151" data-name="Group 151" transform="translate(102.701 102.701)">
          <path id="Path_206" data-name="Path 206" d="M582.548,204.875c-72.959,0-132.314-59.358-132.314-132.317S509.59-59.759,582.548-59.759,714.865-.4,714.865,72.558,655.51,204.875,582.548,204.875Zm0-256.75A124.433,124.433,0,1,0,706.982,72.558,124.571,124.571,0,0,0,582.548-51.875Z" transform="translate(-450.234 59.759)" fill="#fff"/>
        </g>
        <g id="Group_152" data-name="Group 152" transform="translate(128.375 128.375)">
          <path id="Path_207" data-name="Path 207" d="M567.243,163.893A106.642,106.642,0,1,1,673.886,57.253,106.762,106.762,0,0,1,567.243,163.893Zm0-205.4A98.758,98.758,0,1,0,666,57.253,98.871,98.871,0,0,0,567.243-41.506Z" transform="translate(-460.603 49.39)" fill="#fff"/>
        </g>
      </g>
    </g>
  </g>
</svg>
