<svg xmlns="http://www.w3.org/2000/svg" width="108.116" height="108.116" viewBox="0 0 108.116 108.116"><path d="M422.1,409.921a2.479,2.479,0,0,1-1.853-.477,1.585,1.585,0,0,0-1.734,2.651,5.487,5.487,0,0,0,2.014.879v.462a1.584,1.584,0,0,0,3.167,0v-.644a4.455,4.455,0,0,0,2.8-3.426,4.014,4.014,0,0,0-2.723-4.546c-.87-.307-2.282-.611-2.467-1.128a.7.7,0,0,1,.41-.895,1.977,1.977,0,0,1,1.442.184,1.811,1.811,0,0,0,2.292.067c1.232-1.109-.145-2.4-.145-2.4a4.356,4.356,0,0,0-1.611-.884v-.459a1.584,1.584,0,0,0-3.167,0v.55a3.843,3.843,0,0,0-2.358,2.9,3.47,3.47,0,0,0,1.17,3.413,12.212,12.212,0,0,0,3.378,1.633C423.98,408.253,423.249,409.914,422.1,409.921Z" transform="translate(-329.582 -313.778)" fill="#094781"/><path d="M57.1,409.921a2.479,2.479,0,0,1-1.853-.477,1.585,1.585,0,0,0-1.734,2.651,5.487,5.487,0,0,0,2.014.879v.462a1.584,1.584,0,0,0,3.167,0v-.644a4.455,4.455,0,0,0,2.8-3.426,4.014,4.014,0,0,0-2.723-4.546c-.87-.307-2.282-.611-2.467-1.128a.7.7,0,0,1,.41-.895,1.977,1.977,0,0,1,1.442.184,1.811,1.811,0,0,0,2.292.067c1.232-1.109-.145-2.4-.145-2.4a4.356,4.356,0,0,0-1.611-.884v-.459a1.584,1.584,0,0,0-3.167,0v.55a3.843,3.843,0,0,0-2.358,2.9,3.47,3.47,0,0,0,1.17,3.413,12.212,12.212,0,0,0,3.378,1.633C58.98,408.253,58.249,409.914,57.1,409.921Z" transform="translate(-41.657 -313.778)" fill="#094781"/><path d="M422.1,44.921a2.479,2.479,0,0,1-1.853-.477,1.585,1.585,0,0,0-1.734,2.651,5.486,5.486,0,0,0,2.014.879v.462a1.584,1.584,0,0,0,3.167,0v-.644a4.455,4.455,0,0,0,2.8-3.426,4.014,4.014,0,0,0-2.723-4.546c-.87-.307-2.282-.611-2.467-1.128a.7.7,0,0,1,.41-.895,1.977,1.977,0,0,1,1.442.184,1.811,1.811,0,0,0,2.292.067c1.232-1.109-.145-2.4-.145-2.4a4.357,4.357,0,0,0-1.611-.884V34.31a1.584,1.584,0,0,0-3.167,0v.55a3.843,3.843,0,0,0-2.358,2.9,3.47,3.47,0,0,0,1.17,3.413,12.213,12.213,0,0,0,3.378,1.633C423.98,43.253,423.249,44.914,422.1,44.921Z" transform="translate(-329.582 -25.853)" fill="#094781"/><path d="M173.49,168.367a1.6,1.6,0,0,0,1.3-2.493l-6.961-9.935a1.584,1.584,0,0,0-1.3-.675H124.437a1.584,1.584,0,0,0-1.3.675l-6.961,9.935a1.6,1.6,0,0,0,1.3,2.493h5.375l-.068,27.8a1.627,1.627,0,0,0,1.581,1.637H166.53a1.584,1.584,0,0,0,1.584-1.584V168.367Zm-7.785-9.935,4.742,6.768h-8.662l-4.742-6.768Zm-40.444,0h25.693l-4.742,6.768H120.519Zm39.685,36.209h-9.417l.053-5.288a1.584,1.584,0,1,0-3.167-.031l-.053,5.289c-4.279.017-16.9,0-26.407-.016l.064-26.227h21.019a1.584,1.584,0,0,0,1.3-.675l4.081-5.825s0,17.746,0,17.9a1.584,1.584,0,0,0,3.167,0v-17.9l4.081,5.825a1.584,1.584,0,0,0,1.3.675h3.985V194.64Z" transform="translate(-91.425 -122.478)" fill="#094781"/><path d="M15.52,31.04A15.52,15.52,0,1,0,7.3,2.358a1.584,1.584,0,0,0,1.68,2.685,12.334,12.334,0,1,1-4.815,5.611A1.584,1.584,0,0,0,1.253,9.4,15.524,15.524,0,0,0,15.52,31.04Z" fill="#094781"/><path d="M57.1,44.921a2.479,2.479,0,0,1-1.853-.477A1.585,1.585,0,0,0,53.514,47.1a5.486,5.486,0,0,0,2.014.879v.462a1.584,1.584,0,0,0,3.167,0v-.644a4.455,4.455,0,0,0,2.8-3.426,4.014,4.014,0,0,0-2.723-4.546c-.87-.307-2.282-.611-2.467-1.128a.7.7,0,0,1,.41-.895,1.977,1.977,0,0,1,1.442.184,1.811,1.811,0,0,0,2.292.067c1.232-1.109-.145-2.4-.145-2.4a4.357,4.357,0,0,0-1.611-.884V34.31a1.584,1.584,0,0,0-3.167,0v.55a3.843,3.843,0,0,0-2.358,2.9,3.47,3.47,0,0,0,1.17,3.413,12.213,12.213,0,0,0,3.378,1.633C58.98,43.253,58.249,44.914,57.1,44.921Z" transform="translate(-41.657 -25.853)" fill="#094781"/><path d="M380.526,31.04a15.52,15.52,0,1,0-15.52-15.52A15.538,15.538,0,0,0,380.526,31.04Zm0-27.872A12.353,12.353,0,1,1,368.173,15.52,12.367,12.367,0,0,1,380.526,3.167Z" transform="translate(-287.93)" fill="#094781"/><path d="M15.52,365.007a15.52,15.52,0,1,0,15.52,15.52A15.537,15.537,0,0,0,15.52,365.007Zm0,27.872a12.353,12.353,0,1,1,12.353-12.353A12.367,12.367,0,0,1,15.52,392.879Z" transform="translate(0 -287.93)" fill="#094781"/><path d="M380.526,365.007a15.52,15.52,0,1,0,15.52,15.52A15.538,15.538,0,0,0,380.526,365.007Zm0,27.872a12.353,12.353,0,1,1,12.352-12.353A12.367,12.367,0,0,1,380.526,392.879Z" transform="translate(-287.93 -287.93)" fill="#094781"/><path d="M182.49,32.2a12.8,12.8,0,0,1,12.436,9.861l-.734-.761a1.584,1.584,0,0,0-2.278,2.2l3.749,3.882a1.665,1.665,0,0,0,2.525-.256l3.5-3.626a1.585,1.585,0,0,0-2.279-2.2l-1.169,1.21A15.968,15.968,0,0,0,182.49,29.037,1.584,1.584,0,0,0,182.49,32.2Z" transform="translate(-142.743 -22.905)" fill="#094781"/><path d="M250.869,409.438a12.8,12.8,0,0,1-12.436-9.861l.734.76a1.584,1.584,0,1,0,2.279-2.2l-3.749-3.882a1.584,1.584,0,0,0-1.139-.484h-.048a1.581,1.581,0,0,0-1.338.739l-3.5,3.626a1.584,1.584,0,1,0,2.278,2.2l1.169-1.21a15.968,15.968,0,0,0,15.752,13.479,1.584,1.584,0,1,0,0-3.167Z" transform="translate(-182.399 -310.62)" fill="#094781"/><path d="M412.671,182.251a1.584,1.584,0,0,0-3.167,0,12.8,12.8,0,0,1-9.861,12.436l.76-.734a1.584,1.584,0,0,0-2.2-2.278l-3.882,3.749a1.665,1.665,0,0,0,.255,2.525l3.626,3.5a1.585,1.585,0,0,0,2.2-2.278L399.192,198A15.967,15.967,0,0,0,412.671,182.251Z" transform="translate(-310.686 -142.555)" fill="#094781"/><path d="M47.132,234.912l-3.626-3.5a1.584,1.584,0,0,0-2.2,2.278l1.21,1.169A15.968,15.968,0,0,0,29.037,250.61a1.584,1.584,0,0,0,3.167,0,12.8,12.8,0,0,1,9.861-12.436l-.76.734a1.585,1.585,0,0,0,2.2,2.278l3.882-3.749a1.665,1.665,0,0,0-.256-2.526Z" transform="translate(-22.905 -182.19)" fill="#094781"/></svg>