<svg xmlns="http://www.w3.org/2000/svg" width="124.871" height="129.177" viewBox="0 0 124.871 129.177"><g transform="translate(1.934 1.414)"><path d="M111.651,306.082H9.352A11.3,11.3,0,0,1-1.934,294.8V233.4A11.3,11.3,0,0,1,9.352,222.117H37.045a2.153,2.153,0,0,1,0,4.305H9.352a6.989,6.989,0,0,0-6.98,6.983V294.8a6.988,6.988,0,0,0,6.98,6.98h102.3a6.989,6.989,0,0,0,6.981-6.98V233.4a6.99,6.99,0,0,0-6.981-6.983H82.03a2.153,2.153,0,0,1,0-4.305h29.621A11.3,11.3,0,0,1,122.937,233.4V294.8A11.3,11.3,0,0,1,111.651,306.082Zm0,0" transform="translate(0 -178.32)" fill="#094781"/><path d="M120.784,343.516H.219a2.153,2.153,0,1,1,0-4.305H120.784a2.153,2.153,0,1,1,0,4.305Zm0,0" transform="translate(0 -271.73)" fill="#094781"/><path d="M211.557,279.643H159.887a2.154,2.154,0,0,1,0-4.307h51.671a2.154,2.154,0,0,1,0,4.307Zm0,0" transform="translate(-127.374 -220.775)" fill="#094781"/><path d="M221.511,135.29H186.046a2.152,2.152,0,0,1-1.688-.819,24.5,24.5,0,0,1-5.338-15.329,24.759,24.759,0,0,1,49.518,0A24.5,24.5,0,0,1,223.2,134.47,2.155,2.155,0,0,1,221.511,135.29Zm-34.39-4.307h33.315a20.186,20.186,0,0,0,3.8-11.841,20.453,20.453,0,0,0-40.907,0A20.19,20.19,0,0,0,187.121,130.982Zm0,0" transform="translate(-144.354 -76.421)" fill="#094781"/><path d="M287.621,13.656a2.151,2.151,0,0,1-2.152-2.153V.739a2.153,2.153,0,1,1,4.305,0V11.5A2.152,2.152,0,0,1,287.621,13.656Zm0,0" transform="translate(-229.273)" fill="#094781"/><path d="M388.648,38.091a2.151,2.151,0,0,1-1.779-3.362l6.043-8.909a2.152,2.152,0,1,1,3.561,2.419l-6.043,8.908A2.15,2.15,0,0,1,388.648,38.091Zm0,0" transform="translate(-309.867 -20.973)" fill="#094781"/><path d="M446.719,152.3a2.153,2.153,0,0,1-.42-4.265l10.555-2.116a2.153,2.153,0,1,1,.845,4.221l-10.554,2.116A2.065,2.065,0,0,1,446.719,152.3Zm0,0" transform="translate(-356.192 -117.5)" fill="#094781"/><path d="M86.887,152.3a2.06,2.06,0,0,1-.425-.043L75.908,150.14a2.153,2.153,0,0,1,.845-4.221l10.555,2.117a2.153,2.153,0,0,1-.42,4.264Zm0,0" transform="translate(-60.717 -117.5)" fill="#094781"/><path d="M173.4,38.086a2.148,2.148,0,0,1-1.784-.944l-6.043-8.907a2.153,2.153,0,1,1,3.562-2.419l6.044,8.908a2.152,2.152,0,0,1-1.778,3.363Zm0,0" transform="translate(-133.333 -20.968)" fill="#094781"/><path d="M400.522,526.743a8.612,8.612,0,1,1,8.613-8.611A8.621,8.621,0,0,1,400.522,526.743Zm0-12.919a4.306,4.306,0,1,0,4.306,4.308A4.313,4.313,0,0,0,400.522,513.825Zm0,0" transform="translate(-314.185 -407.593)" fill="#094781"/><path d="M496.326,526.743a8.612,8.612,0,1,1,8.612-8.611A8.621,8.621,0,0,1,496.326,526.743Zm0-12.919a4.306,4.306,0,1,0,4.306,4.308A4.311,4.311,0,0,0,496.326,513.825Zm0,0" transform="translate(-390.612 -407.593)" fill="#094781"/><text transform="translate(60.066 47.84)" fill="#094781" font-size="20" font-family="Helvetica-Bold, Helvetica" font-weight="700"><tspan x="-5.562" y="0">$</tspan></text></g></svg>