<?xml version="1.0" encoding="utf-8"?>
<!-- Generator: Adobe Illustrator 25.0.0, SVG Export Plug-In . SVG Version: 6.00 Build 0)  -->
<svg version="1.1" id="Layer_1" xmlns="http://www.w3.org/2000/svg" xmlns:xlink="http://www.w3.org/1999/xlink" x="0px" y="0px"
	 viewBox="0 0 100 100" style="enable-background:new 0 0 100 100;" xml:space="preserve">
<style type="text/css">
	.st0{fill:#094781;}
</style>
<path class="st0" d="M81.8,40H65c-0.9,0-1.7,0.7-1.7,1.7c0,0.9,0.7,1.7,1.7,1.7h16.7c2.8,0,5,2.2,5,5v33.4c0,2.8-2.2,5-5,5H48.3
	c-2.8,0-5-2.2-5-5V68.4c0-0.9-0.7-1.7-1.7-1.7c-0.9,0-1.7,0.7-1.7,1.7v13.4c0,4.6,3.7,8.4,8.4,8.4h33.4c4.6,0,8.4-3.7,8.4-8.4V48.3
	C90.1,43.7,86.4,40,81.8,40z M34.9,56.7h-1.7c-0.9,0-1.7,0.7-1.7,1.7c0,0.9,0.7,1.7,1.7,1.7h1.7c0.9,0,1.7-0.7,1.7-1.7
	C36.6,57.4,35.9,56.7,34.9,56.7z M19.7,9.9h-1.5c-0.8,0-1.6,0.1-2.3,0.3c-0.9,0.2-1.4,1.2-1.2,2.1c0.2,0.7,0.9,1.2,1.6,1.2
	c0.2,0,0.3,0,0.5-0.1c0.5-0.1,0.9-0.2,1.4-0.2h1.5c0.9,0,1.7-0.7,1.7-1.7S20.6,9.9,19.7,9.9L19.7,9.9z M13.2,50.2v-3.4
	c0-0.9-0.7-1.7-1.7-1.7s-1.7,0.7-1.7,1.7v3.4c0,0.9,0.7,1.7,1.7,1.7S13.2,51.1,13.2,50.2z M11.5,41.7c0.9,0,1.7-0.7,1.7-1.7v-3.4
	c0-0.9-0.7-1.7-1.7-1.7s-1.7,0.7-1.7,1.7V40C9.9,41,10.6,41.7,11.5,41.7C11.5,41.7,11.5,41.7,11.5,41.7z M11.5,21.4
	c0.9,0,1.7-0.7,1.7-1.7l0,0v-1.5c0-0.5,0.1-0.9,0.2-1.4c0.3-0.9-0.2-1.8-1.1-2.1c-0.9-0.3-1.8,0.2-2.1,1.1c0,0,0,0.1,0,0.1
	c-0.2,0.7-0.3,1.5-0.3,2.3v1.5C9.9,20.7,10.6,21.4,11.5,21.4C11.5,21.4,11.5,21.4,11.5,21.4z M11.5,31.6c0.9,0,1.7-0.7,1.7-1.7v-3.4
	c0-0.9-0.7-1.7-1.7-1.7s-1.7,0.7-1.7,1.7v3.4C9.9,30.8,10.6,31.6,11.5,31.6C11.5,31.6,11.5,31.6,11.5,31.6z M16.9,56.5
	c-0.8-0.2-1.6-0.7-2.2-1.3c-0.7-0.7-1.7-0.6-2.4,0c-0.7,0.7-0.6,1.7,0,2.4c1,1,2.2,1.7,3.6,2.1c0.9,0.3,1.8-0.3,2.1-1.2
	C18.3,57.7,17.7,56.7,16.9,56.5L16.9,56.5L16.9,56.5z M58.1,18c0.2,0,0.3,0,0.5-0.1c0.9-0.3,1.4-1.2,1.1-2.1c0,0,0,0,0,0
	c-0.4-1.4-1.1-2.6-2.1-3.6c-0.7-0.6-1.7-0.6-2.4,0c-0.6,0.7-0.6,1.7,0,2.4l0,0c0.6,0.6,1,1.3,1.3,2.2C56.7,17.5,57.3,18,58.1,18z
	 M50.1,9.9h-3.4c-0.9,0-1.7,0.7-1.7,1.7s0.7,1.7,1.7,1.7h3.4c0.9,0,1.7-0.7,1.7-1.7S51.1,9.9,50.1,9.9L50.1,9.9z M26.5,56.7h-3.4
	c-0.9,0-1.7,0.7-1.7,1.7c0,0.9,0.7,1.7,1.7,1.7h3.4c0.9,0,1.7-0.7,1.7-1.7C28.2,57.4,27.4,56.7,26.5,56.7z M58.4,21.4
	c-0.9,0-1.7,0.7-1.7,1.7v3.4c0,0.9,0.7,1.7,1.7,1.7c0.9,0,1.7-0.7,1.7-1.7l0,0v-3.4C60,22.2,59.3,21.4,58.4,21.4
	C58.4,21.4,58.4,21.4,58.4,21.4z M40,9.9h-3.4c-0.9,0-1.7,0.7-1.7,1.7s0.7,1.7,1.7,1.7H40c0.9,0,1.7-0.7,1.7-1.7S40.9,9.9,40,9.9
	L40,9.9L40,9.9z M29.8,9.9h-3.4c-0.9,0-1.7,0.7-1.7,1.7s0.7,1.7,1.7,1.7h3.4c0.9,0,1.7-0.7,1.7-1.7S30.8,9.9,29.8,9.9z M58.4,31.6
	c-0.9,0-1.7,0.7-1.7,1.7v1.7c0,0.9,0.7,1.7,1.7,1.7c0.9,0,1.7-0.7,1.7-1.7l0,0v-1.7C60,32.4,59.3,31.6,58.4,31.6
	C58.4,31.6,58.4,31.6,58.4,31.6z M64.7,39l-5.2-5.2c-2-2-5.3-2-7.4,0c-0.6,0.6-1,1.3-1.3,2.1c-1.9-0.6-4-0.2-5.4,1.2
	c-0.7,0.7-1.2,1.7-1.4,2.7c-1.6-0.2-3.3,0.3-4.4,1.5c-1.1,1.1-1.6,2.5-1.5,4.1c-2.9,0.4-4.9,3-4.5,5.9c0.2,1.1,0.7,2.2,1.5,3
	l1.5,1.5v6c0,4.6,3.7,8.4,8.4,8.4h6.9c10.1,0,18.2-8.2,18.2-18.2C70.1,47,68.1,42.4,64.7,39L64.7,39z M51.8,66.7H45
	c-2.8,0-5-2.2-5-5v-2.7l3.8,3.8c0.7,0.7,1.7,0.7,2.4,0c0.7-0.7,0.7-1.7,0-2.4l0,0l-8.7-8.7c-0.7-0.7-0.7-1.9,0-2.6
	c0.7-0.7,1.9-0.7,2.7,0l3.7,3.7c0.7,0.7,1.7,0.7,2.4,0c0.7-0.7,0.7-1.7,0-2.4L42,46.3c-0.7-0.7-0.7-1.9,0-2.7c0,0,0,0,0,0
	c0.7-0.7,1.9-0.7,2.7,0l2.5,2.5c0.7,0.7,1.7,0.7,2.4,0c0.7-0.7,0.7-1.7,0-2.4l-1.7-1.7c-0.7-0.7-0.7-1.9,0-2.7c0,0,0,0,0,0
	c0.7-0.7,1.9-0.7,2.7,0l1.7,1.7c0.7,0.7,1.7,0.7,2.4,0c0.7-0.7,0.7-1.7,0-2.4l0,0c-0.7-0.7-0.7-1.9,0-2.6c0,0,0,0,0,0
	c0.7-0.7,1.9-0.7,2.7,0c0,0,0,0,0,0l5.2,5.2c5.8,5.8,5.8,15.2,0,21C59.6,65.2,55.8,66.7,51.8,66.7L51.8,66.7z"/>
</svg>
