<svg xmlns="http://www.w3.org/2000/svg" width="104" height="104" viewBox="0 0 104 104"><g transform="translate(-16 -16)"><path d="M111.333,22.933h-10.4V21.2a5.2,5.2,0,1,0-10.4,0v1.733H73.2V21.2a5.2,5.2,0,1,0-10.4,0v1.733H45.467V21.2a5.2,5.2,0,1,0-10.4,0v1.733h-10.4A8.676,8.676,0,0,0,16,31.6v79.733A8.676,8.676,0,0,0,24.667,120h86.667A8.676,8.676,0,0,0,120,111.333V31.6A8.676,8.676,0,0,0,111.333,22.933ZM94,21.2a1.733,1.733,0,1,1,3.467,0V31.6A1.733,1.733,0,0,1,94,31.6Zm-27.733,0a1.733,1.733,0,1,1,3.467,0V31.6a1.733,1.733,0,0,1-3.467,0Zm-27.733,0A1.733,1.733,0,1,1,42,21.2V31.6a1.733,1.733,0,0,1-3.467,0ZM24.667,26.4h10.4v5.2a5.2,5.2,0,0,0,10.4,0V26.4H62.8v5.2a5.2,5.2,0,0,0,10.4,0V26.4H90.533v5.2a5.2,5.2,0,0,0,10.4,0V26.4h10.4a5.206,5.206,0,0,1,5.2,5.2V43.733H19.467V31.6a5.206,5.206,0,0,1,5.2-5.2Zm86.667,90.133H24.667a5.206,5.206,0,0,1-5.2-5.2V47.2h97.067v64.133a5.206,5.206,0,0,1-5.2,5.2Z" fill="#fff"/><path d="M408.667,216h-6.933A1.733,1.733,0,0,0,400,217.733v6.933a1.733,1.733,0,0,0,1.733,1.733h6.933a1.733,1.733,0,0,0,1.733-1.733v-6.933A1.733,1.733,0,0,0,408.667,216Zm-1.733,6.933h-3.467v-3.467h3.467Z" transform="translate(-300.8 -156.667)" fill="#fff"/><path d="M248.667,376h-6.933A1.733,1.733,0,0,0,240,377.733v6.933a1.733,1.733,0,0,0,1.733,1.733h6.933a1.733,1.733,0,0,0,1.733-1.733v-6.933A1.733,1.733,0,0,0,248.667,376Zm-1.733,6.933h-3.467v-3.467h3.467Z" transform="translate(-175.467 -282)" fill="#fff"/><path d="M168.667,216h-6.933A1.733,1.733,0,0,0,160,217.733v6.933a1.733,1.733,0,0,0,1.733,1.733h6.933a1.733,1.733,0,0,0,1.733-1.733v-6.933A1.733,1.733,0,0,0,168.667,216Zm-1.733,6.933h-3.467v-3.467h3.467Z" transform="translate(-112.8 -156.667)" fill="#fff"/><path d="M88.667,296H81.733A1.733,1.733,0,0,0,80,297.733v6.933a1.733,1.733,0,0,0,1.733,1.733h6.933a1.733,1.733,0,0,0,1.733-1.733v-6.933A1.733,1.733,0,0,0,88.667,296Zm-1.733,6.933H83.467v-3.467h3.467Z" transform="translate(-50.133 -219.333)" fill="#fff"/><path d="M168.667,296h-6.933A1.733,1.733,0,0,0,160,297.733v6.933a1.733,1.733,0,0,0,1.733,1.733h6.933a1.733,1.733,0,0,0,1.733-1.733v-6.933A1.733,1.733,0,0,0,168.667,296Zm-1.733,6.933h-3.467v-3.467h3.467Z" transform="translate(-112.8 -219.333)" fill="#fff"/><path d="M88.667,376H81.733A1.733,1.733,0,0,0,80,377.733v6.933a1.733,1.733,0,0,0,1.733,1.733h6.933a1.733,1.733,0,0,0,1.733-1.733v-6.933A1.733,1.733,0,0,0,88.667,376Zm-1.733,6.933H83.467v-3.467h3.467Z" transform="translate(-50.133 -282)" fill="#fff"/><path d="M168.667,376h-6.933A1.733,1.733,0,0,0,160,377.733v6.933a1.733,1.733,0,0,0,1.733,1.733h6.933a1.733,1.733,0,0,0,1.733-1.733v-6.933A1.733,1.733,0,0,0,168.667,376Zm-1.733,6.933h-3.467v-3.467h3.467Z" transform="translate(-112.8 -282)" fill="#fff"/><path d="M261.731,210.612l-8.667-1.324L249.172,201a1.733,1.733,0,0,0-3.138,0l-3.891,8.292-8.667,1.324a1.733,1.733,0,0,0-.979,2.925l6.323,6.48-1.5,9.171a1.733,1.733,0,0,0,2.546,1.795l7.732-4.274,7.732,4.274a1.733,1.733,0,0,0,2.549-1.8l-1.495-9.171,6.323-6.48a1.733,1.733,0,0,0-.979-2.925Zm-8.436,7.609a1.733,1.733,0,0,0-.47,1.49l1.062,6.511-5.446-3.012a1.733,1.733,0,0,0-1.677,0l-5.446,3.012,1.062-6.511a1.733,1.733,0,0,0-.47-1.49l-4.576-4.691,6.247-.953a1.733,1.733,0,0,0,1.307-.977l2.716-5.787,2.716,5.786a1.733,1.733,0,0,0,1.307.977l6.247.953Z" transform="translate(-169.203 -144.133)" fill="#fff"/><path d="M408.667,296h-6.933A1.733,1.733,0,0,0,400,297.733v6.933a1.733,1.733,0,0,0,1.733,1.733h6.933a1.733,1.733,0,0,0,1.733-1.733v-6.933A1.733,1.733,0,0,0,408.667,296Zm-1.733,6.933h-3.467v-3.467h3.467Z" transform="translate(-300.8 -219.333)" fill="#fff"/><path d="M408.667,376h-6.933A1.733,1.733,0,0,0,400,377.733v6.933a1.733,1.733,0,0,0,1.733,1.733h6.933a1.733,1.733,0,0,0,1.733-1.733v-6.933A1.733,1.733,0,0,0,408.667,376Zm-1.733,6.933h-3.467v-3.467h3.467Z" transform="translate(-300.8 -282)" fill="#fff"/><path d="M328.667,376h-6.933A1.733,1.733,0,0,0,320,377.733v6.933a1.733,1.733,0,0,0,1.733,1.733h6.933a1.733,1.733,0,0,0,1.733-1.733v-6.933A1.733,1.733,0,0,0,328.667,376Zm-1.733,6.933h-3.467v-3.467h3.467Z" transform="translate(-238.133 -282)" fill="#fff"/></g></svg>