<?xml version="1.0" encoding="utf-8"?>
<!-- Generator: Adobe Illustrator 25.0.0, SVG Export Plug-In . SVG Version: 6.00 Build 0)  -->
<svg version="1.1" id="Layer_1" xmlns="http://www.w3.org/2000/svg" xmlns:xlink="http://www.w3.org/1999/xlink" x="0px" y="0px"
	 viewBox="0 0 100 100" style="enable-background:new 0 0 100 100;" xml:space="preserve">
<style type="text/css">
	.st0{fill:#094781;}
</style>
<g transform="translate(-16 -16)">
	<path class="st0" d="M97.8,32.9h-7.6v-1.3c0-2.1-1.7-3.8-3.8-3.8s-3.8,1.7-3.8,3.8v1.3H69.8v-1.3c0-2.1-1.7-3.8-3.8-3.8
		c-2.1,0-3.8,1.7-3.8,3.8v1.3H49.5v-1.3c0-2.1-1.7-3.8-3.8-3.8s-3.8,1.7-3.8,3.8c0,0,0,0,0,0v1.3h-7.6c-3.5,0-6.4,2.8-6.4,6.4v58.5
		c0,3.5,2.8,6.4,6.4,6.4h63.6c3.5,0,6.4-2.8,6.4-6.4V39.3C104.1,35.8,101.3,33,97.8,32.9z M85.1,31.7c0-0.7,0.6-1.3,1.3-1.3
		c0.7,0,1.3,0.6,1.3,1.3v7.6c0,0.7-0.6,1.3-1.3,1.3c-0.7,0-1.3-0.6-1.3-1.3V31.7z M64.7,31.7c0-0.7,0.6-1.3,1.3-1.3s1.3,0.6,1.3,1.3
		v7.6c0,0.7-0.6,1.3-1.3,1.3s-1.3-0.6-1.3-1.3V31.7z M44.4,31.7c0-0.7,0.6-1.3,1.3-1.3c0.7,0,1.3,0.6,1.3,1.3l0,0v7.6
		c0,0.7-0.6,1.3-1.3,1.3s-1.3-0.6-1.3-1.3L44.4,31.7z M34.2,35.5h7.6v3.8c0,2.1,1.7,3.8,3.8,3.8c2.1,0,3.8-1.7,3.8-3.8v-3.8h12.7
		v3.8c0,2.1,1.7,3.8,3.8,3.8c2.1,0,3.8-1.7,3.8-3.8v-3.8h12.7v3.8c0,2.1,1.7,3.8,3.8,3.8s3.8-1.7,3.8-3.8v-3.8h7.6
		c2.1,0,3.8,1.7,3.8,3.8v8.9H30.4v-8.9C30.4,37.2,32.1,35.5,34.2,35.5z M97.8,101.6H34.2c-2.1,0-3.8-1.7-3.8-3.8v-47h71.2v47
		C101.6,99.9,99.9,101.6,97.8,101.6z"/>
	<path class="st0" d="M95.2,59.6h-5.1c-0.7,0-1.3,0.6-1.3,1.3c0,0,0,0,0,0V66c0,0.7,0.6,1.3,1.3,1.3l0,0h5.1c0.7,0,1.3-0.6,1.3-1.3
		l0,0v-5.1C96.5,60.2,95.9,59.6,95.2,59.6z M94,64.7h-2.5v-2.5H94V64.7z"/>
	<path class="st0" d="M69.8,85.1h-5.1c-0.7,0-1.3,0.6-1.3,1.3c0,0,0,0,0,0v5.1c0,0.7,0.6,1.3,1.3,1.3l0,0h5.1c0.7,0,1.3-0.6,1.3-1.3
		l0,0v-5.1C71.1,85.6,70.5,85.1,69.8,85.1z M68.5,90.2H66v-2.5h2.5V90.2z"/>
	<path class="st0" d="M57.1,59.6H52c-0.7,0-1.3,0.6-1.3,1.3c0,0,0,0,0,0V66c0,0.7,0.6,1.3,1.3,1.3l0,0h5.1c0.7,0,1.3-0.6,1.3-1.3
		l0,0v-5.1C58.4,60.2,57.8,59.6,57.1,59.6z M55.8,64.7h-2.5v-2.5h2.5V64.7z"/>
	<path class="st0" d="M44.4,72.4h-5.1c-0.7,0-1.3,0.6-1.3,1.3l0,0v5.1c0,0.7,0.6,1.3,1.3,1.3l0,0h5.1c0.7,0,1.3-0.6,1.3-1.3l0,0
		v-5.1C45.7,72.9,45.1,72.4,44.4,72.4z M43.1,77.4h-2.5v-2.5h2.5L43.1,77.4z"/>
	<path class="st0" d="M57.1,72.4H52c-0.7,0-1.3,0.6-1.3,1.3c0,0,0,0,0,0v5.1c0,0.7,0.6,1.3,1.3,1.3l0,0h5.1c0.7,0,1.3-0.6,1.3-1.3
		l0,0v-5.1C58.4,72.9,57.8,72.4,57.1,72.4z M55.8,77.4h-2.5v-2.5h2.5V77.4z"/>
	<path class="st0" d="M44.4,85.1h-5.1c-0.7,0-1.3,0.6-1.3,1.3l0,0v5.1c0,0.7,0.6,1.3,1.3,1.3l0,0h5.1c0.7,0,1.3-0.6,1.3-1.3l0,0
		v-5.1C45.7,85.6,45.1,85.1,44.4,85.1z M43.1,90.2h-2.5v-2.5h2.5L43.1,90.2z"/>
	<path class="st0" d="M57.1,85.1H52c-0.7,0-1.3,0.6-1.3,1.3c0,0,0,0,0,0v5.1c0,0.7,0.6,1.3,1.3,1.3l0,0h5.1c0.7,0,1.3-0.6,1.3-1.3
		l0,0v-5.1C58.4,85.6,57.8,85.1,57.1,85.1z M55.8,90.2h-2.5v-2.5h2.5V90.2z"/>
	<path class="st0" d="M84,64.9l-6.4-1l-2.9-6.1c-0.3-0.6-1.1-0.9-1.7-0.6c-0.3,0.1-0.5,0.3-0.6,0.6l-2.9,6.1l-6.4,1
		c-0.7,0.1-1.2,0.8-1.1,1.4c0,0.3,0.2,0.5,0.3,0.7l4.6,4.8l-1.1,6.7c-0.1,0.7,0.4,1.3,1.1,1.5c0.3,0,0.6,0,0.8-0.1l5.7-3.1l5.7,3.1
		c0.6,0.3,1.4,0.1,1.7-0.5c0.1-0.3,0.2-0.5,0.1-0.8l-1.1-6.7l4.6-4.8c0.5-0.5,0.5-1.3,0-1.8C84.5,65,84.2,64.9,84,64.9L84,64.9z
		 M77.8,70.5c-0.3,0.3-0.4,0.7-0.3,1.1l0.8,4.8l-4-2.2c-0.4-0.2-0.8-0.2-1.2,0l-4,2.2l0.8-4.8c0.1-0.4-0.1-0.8-0.3-1.1L66.1,67
		l4.6-0.7c0.4-0.1,0.8-0.3,1-0.7l2-4.2l2,4.2c0.2,0.4,0.5,0.7,1,0.7l4.6,0.7L77.8,70.5z"/>
	<path class="st0" d="M95.2,72.4h-5.1c-0.7,0-1.3,0.6-1.3,1.3c0,0,0,0,0,0v5.1c0,0.7,0.6,1.3,1.3,1.3l0,0h5.1c0.7,0,1.3-0.6,1.3-1.3
		l0,0v-5.1C96.5,72.9,95.9,72.4,95.2,72.4z M94,77.4h-2.5v-2.5H94V77.4z"/>
	<path class="st0" d="M95.2,85.1h-5.1c-0.7,0-1.3,0.6-1.3,1.3c0,0,0,0,0,0v5.1c0,0.7,0.6,1.3,1.3,1.3l0,0h5.1c0.7,0,1.3-0.6,1.3-1.3
		l0,0v-5.1C96.5,85.6,95.9,85.1,95.2,85.1z M94,90.2h-2.5v-2.5H94V90.2z"/>
	<path class="st0" d="M82.5,85.1h-5.1c-0.7,0-1.3,0.6-1.3,1.3c0,0,0,0,0,0v5.1c0,0.7,0.6,1.3,1.3,1.3l0,0h5.1c0.7,0,1.3-0.6,1.3-1.3
		l0,0v-5.1C83.8,85.6,83.2,85.1,82.5,85.1z M81.3,90.2h-2.5v-2.5h2.5V90.2z"/>
</g>
</svg>
