<svg xmlns="http://www.w3.org/2000/svg" width="664.825" height="1267.309" viewBox="0 0 664.825 1267.309"><g transform="translate(88.77 1252.883) rotate(-87)" opacity="0.509" style="isolation:isolate"><g transform="translate(4.05 -89.104)"><path d="M1249.1,352.906c-83.084-100.711-173.538-83.228-310.459-56.76-13.977,2.7-28.43,5.494-43.375,8.255-107.76,19.9-181.834,16.042-233.116-12.133-46.988-25.819-71.52-69.131-99.924-119.282-17.63-31.126-35.861-63.313-61.67-95.75C417.3-27.4,327-82.884,232.159-87.686c-68.768-3.474-126.926,21.11-163.6,42.353-39.74,23.021-63.5,47.16-63.735,47.4L4.05,1.307c.237-.241,24.1-24.486,63.968-47.579,36.8-21.319,95.15-45.995,164.2-42.5C327.377-83.953,417.944-28.328,501.4,76.558c25.863,32.5,44.114,64.728,61.765,95.891,28.324,50.008,52.784,93.194,99.5,118.865,51.049,28.05,124.894,31.87,232.395,12.016,14.942-2.759,29.391-5.553,43.366-8.255,66.942-12.94,124.754-24.115,175.23-19.214,54.349,5.274,97.652,29.537,136.273,76.351Z" transform="translate(-4.05 89.104)" fill="#094781"/></g><g transform="translate(22.395 -64.086)"><path d="M1228.906,366.338c-77.666-109.1-179.378-91.4-320.15-66.9q-15.976,2.782-32.6,5.62C773.2,322.448,702.769,318.339,654.516,292.135c-44.4-24.108-67.416-64.511-94.07-111.293-18.025-31.637-38.457-67.5-68.433-102.355C405.842-21.715,314.8-73.832,221.435-76.412,157.087-78.2,103.929-55.389,70.659-35.949,34.594-14.873,13.479,6.907,13.271,7.124l-.783-.754c.209-.217,21.4-22.084,57.587-43.233,33.4-19.521,86.76-42.414,151.376-40.635,93.7,2.585,185,54.828,271.386,155.278,30.046,34.937,50.5,70.844,68.555,102.527,53.349,93.635,91.9,161.29,314.583,123.68q16.625-2.808,32.594-5.618c70.135-12.205,130.707-22.749,183.743-16.586,57.81,6.711,101.5,33.381,137.479,83.925Z" transform="translate(-12.488 77.597)" fill="#094781"/></g><g transform="translate(40.737 -39.263)"><path d="M1208.719,379.876c-71.735-117.532-185.224-99.9-328.9-77.571q-11.267,1.751-22.763,3.518c-38.909,5.935-71.931,8.685-100.185,8.688C630.353,314.517,599.011,259.4,558.445,188.1c-18.99-33.374-40.511-71.2-74.97-108.26C394.392-15.967,302.712-64.729,210.977-65.09l-.989,0c-59.337,0-107.249,20.921-137.057,38.529C40.457-7.381,21.9,12.09,21.716,12.285l-.791-.748c.185-.2,18.849-19.777,51.454-39.038C102.3-45.175,150.41-66.179,209.988-66.179c.333,0,.661,0,.994,0,92.048.361,184,49.24,273.289,145.28,34.544,37.153,56.1,75.038,75.118,108.462C608.8,274.4,644.5,337.141,856.888,304.749q11.5-1.758,22.76-3.518c72.922-11.331,135.9-21.117,191.49-13.605,61.38,8.294,105.392,37.427,138.51,91.682Z" transform="translate(-20.925 66.179)" fill="#094781"/></g><g transform="translate(59.08 -14.653)"><path d="M1188.534,393.529c-65.311-125.92-190.955-108.7-336.443-88.758q-7.044.965-14.144,1.933c-93.765,12.714-157.235,7.957-199.742-14.971-39.348-21.223-59.128-56.31-82.03-96.939-19.673-34.9-41.968-74.451-81.236-113.48C382.93-10.134,290.713-55.572,200.824-53.718,95.393-51.548,30.8,16.87,30.16,17.561l-.8-.739c.644-.7,65.524-69.44,171.419-71.627C290.954-56.655,383.472-11.13,475.7,80.544c39.375,39.133,61.711,78.756,81.417,113.714,22.821,40.483,42.529,75.444,81.6,96.518,42.294,22.812,105.555,27.532,199.081,14.851q7.1-.965,14.144-1.935c72.1-9.883,140.205-19.214,198.286-10.249,64.979,10.031,109.232,41.675,139.268,99.583Z" transform="translate(-29.362 54.859)" fill="#094781"/></g><g transform="translate(77.425 9.727)"><path d="M1168.353,407.3c-26.606-61.093-70.725-95.076-138.842-106.947-60.285-10.5-129.939-2.233-203.686,6.524l-6.983.828c-89.356,10.551-149.513,5.4-189.311-16.205-36.907-20.032-55-52.721-75.944-90.574C533.539,164.7,510.82,123.647,466.4,82.91,371.371-4.246,278.68-46.362,190.872-42.29,94.687-37.818,39.154,22.353,38.6,22.96l-.8-.73c.552-.611,56.391-61.113,153.022-65.6C278.934-47.456,371.884-5.251,467.137,82.11c44.549,40.857,67.313,81.995,87.4,118.291,20.867,37.7,38.885,70.268,75.512,90.148,39.592,21.491,99.542,26.6,188.666,16.079l6.983-.828c73.827-8.768,143.562-17.049,204-6.513,32.513,5.666,59.174,16.279,81.5,32.448,25,18.1,44.018,42.677,58.154,75.136Z" transform="translate(-37.8 43.645)" fill="#094781"/></g><g transform="translate(95.765 33.867)"><path d="M1148.174,421.209c-22.869-63.587-68.25-101.181-138.738-114.932-62.452-12.181-136.57-4.757-208.247,2.418l-1.452.146c-85.069,8.5-142.021,2.911-179.228-17.566C585.98,272.268,569.6,241.792,550.63,206.5c-20.084-37.366-42.849-79.716-92.761-121.869C321.438-30.586,216.981-39.689,153.376-27.038,84.513-13.339,47.419,28.071,47.053,28.488l-.817-.717c.37-.42,37.709-42.107,106.929-55.876,40.638-8.081,84.158-5.113,129.348,8.827C338.965-1.864,398.2,32.819,458.571,83.8c50.069,42.286,72.886,84.734,93.015,122.185,18.886,35.135,35.2,65.481,69.446,84.332,37,20.367,93.754,25.908,178.6,17.438l1.452-.146c71.757-7.187,145.956-14.616,208.563-2.4,70.9,13.831,116.545,51.654,139.555,115.632Z" transform="translate(-46.236 32.542)" fill="#094781"/></g><g transform="translate(114.106 57.744)"><path d="M1128,435.258c-19.28-66.428-64.087-106.553-136.986-122.669-64.57-14.275-142.036-8-210.382-2.472-80.914,6.555-134.777.5-169.505-19.054-32.226-18.14-46.895-46.595-63.878-79.543-19.764-38.338-42.166-81.791-97.911-125.02C312.788-19.391,212.972-27.975,153.281-16.528,88.637-4.132,55.824,33.773,55.5,34.156l-.828-.7C55,33.069,88.011-5.095,153-17.583,191.151-24.911,232.7-22.1,276.488-9.226c54.7,16.082,113.078,48,173.514,94.868,55.934,43.377,78.395,86.943,98.211,125.381,16.906,32.791,31.5,61.113,63.446,79.093,34.533,19.438,88.2,25.45,168.884,18.919,68.424-5.54,145.975-11.818,210.706,2.491,73.32,16.21,118.4,56.584,137.794,123.428Z" transform="translate(-54.672 21.559)" fill="#094781"/></g></g></svg>