<?xml version="1.0" encoding="utf-8"?>
<!-- Generator: Adobe Illustrator 25.0.0, SVG Export Plug-In . SVG Version: 6.00 Build 0)  -->
<svg version="1.1" id="Layer_1" xmlns="http://www.w3.org/2000/svg" xmlns:xlink="http://www.w3.org/1999/xlink" x="0px" y="0px"
	 viewBox="0 0 2294.3 1778.1" style="enable-background:new 0 0 2294.3 1778.1;" xml:space="preserve">
<style type="text/css">
	.st0{opacity:0.395;}
	.st1{fill:#094781;}
</style>
<g transform="matrix(0.5, -0.866, 0.866, 0.5, 75.142, 2268.807)" class="st0">
	<g transform="translate(4.05 -89.104)">
		<path class="st1" d="M2956,682.6c-171-207.3-357.2-171.3-639-116.8c-28.8,5.6-58.5,11.3-89.3,17c-221.8,41-374.3,33-479.8-25
			c-96.7-53.1-147.2-142.3-205.7-245.5c-36.3-64.1-73.8-130.3-126.9-197.1c-171.4-215.4-357.2-329.6-552.4-339.4
			c-141.5-7.2-261.2,43.4-336.7,87.2C444.4-89.7,395.5-40,395-39.5l-1.6-1.6C393.9-41.5,443-91.4,525-139
			c75.7-43.9,195.8-94.7,338-87.5c195.9,9.9,382.3,124.4,554,340.3c53.2,66.9,90.8,133.2,127.1,197.4
			c58.3,102.9,108.6,191.8,204.8,244.6c105.1,57.7,257.1,65.6,478.3,24.7c30.8-5.7,60.5-11.4,89.3-17
			c137.8-26.6,256.8-49.6,360.7-39.5c111.9,10.9,201,60.8,280.5,157.1L2956,682.6z"/>
	</g>
	<g transform="translate(41.808 -37.612)">
		<path class="st1" d="M2897,686.6c-159.9-224.5-369.2-188.1-658.9-137.7c-21.9,3.8-44.3,7.7-67.1,11.6
			c-211.9,35.8-356.9,27.3-456.2-26.6c-91.4-49.6-138.8-132.8-193.6-229.1c-37.1-65.1-79.2-138.9-140.8-210.7
			C1203-112.1,1015.6-219.4,823.4-224.7c-132.4-3.7-241.9,43.3-310.3,83.3C438.9-98,395.4-53.2,395-52.7l-1.6-1.6
			c0.4-0.4,44.1-45.5,118.5-89c68.7-40.2,178.6-87.3,311.6-83.6c192.8,5.3,380.8,112.8,558.6,319.6c61.8,71.9,103.9,145.8,141.1,211
			c109.8,192.7,189.1,332,647.5,254.6c22.8-3.9,45.2-7.7,67.1-11.6c144.4-25.1,269-46.8,378.2-34.1c119,13.8,208.9,68.7,283,172.7
			L2897,686.6z"/>
	</g>
	<g transform="translate(79.561 13.48)">
		<path class="st1" d="M2838.1,691c-147.6-241.9-381.2-205.6-677-159.7c-15.5,2.4-31.1,4.8-46.8,7.2
			c-80.1,12.2-148.1,17.9-206.2,17.9c-260.4,0-324.9-113.4-408.4-260.2c-39.1-68.7-83.4-146.5-154.3-222.8
			c-183.4-197.2-372.1-297.6-560.9-298.3c-0.7,0-1.4,0-2,0c-122.1,0-220.7,43.1-282.1,79.3c-66.8,39.5-105,79.6-105.4,80l-1.6-1.5
			c0.4-0.4,38.8-40.7,105.9-80.3c61.6-36.4,160.6-79.6,283.2-79.6c0.7,0,1.4,0,2,0c189.5,0.7,378.7,101.3,562.5,299
			c71.1,76.5,115.5,154.4,154.6,223.2C1603.4,473.9,1676.8,603,2114,536.3c15.8-2.4,31.4-4.8,46.8-7.2
			c150.1-23.3,279.7-43.5,394.1-28c126.3,17.1,216.9,77,285.1,188.7L2838.1,691z"/>
	</g>
	<g transform="translate(117.314 64.133)">
		<path class="st1" d="M2779.2,695.8c-134.4-259.2-393-223.7-692.5-182.7c-9.7,1.3-19.4,2.7-29.1,4c-193,26.2-323.6,16.4-411.1-30.8
			c-81-43.7-121.7-115.9-168.8-199.5c-40.5-71.8-86.4-153.2-167.2-233.6c-189.4-188.2-379.2-281.7-564.2-277.9
			C529.3-220.3,396.3-79.5,395-78.1l-1.6-1.5C394.7-81,528.2-222.5,746.2-227c185.6-3.8,376,89.9,565.9,278.6
			c81,80.5,127,162.1,167.6,234c47,83.3,87.5,155.3,167.9,198.7c87.1,47,217.3,56.7,409.8,30.6c9.7-1.3,19.4-2.7,29.1-4
			c148.4-20.3,288.6-39.5,408.1-21.1c133.7,20.6,224.8,85.8,286.6,205L2779.2,695.8z"/>
	</g>
	<g transform="translate(155.071 114.312)">
		<path class="st1" d="M2720.3,701c-54.8-125.7-145.6-195.7-285.8-220.1c-124.1-21.6-267.4-4.6-419.2,13.4l-14.4,1.7
			c-183.9,21.7-307.7,11.1-389.6-33.4c-76-41.2-113.2-108.5-156.3-186.4c-41.3-74.6-88-159.1-179.4-242.9
			C1079.9-146,889.2-232.7,708.4-224.3C510.5-215.1,396.2-91.3,395-90l-1.7-1.5c1.1-1.3,116.1-125.8,315-135
			C889.7-235,1081-148.1,1277,31.7c91.7,84.1,138.5,168.8,179.9,243.5c42.9,77.6,80,144.6,155.4,185.5
			c81.5,44.2,204.9,54.8,388.3,33.1l14.4-1.7c152-18,295.5-35.1,419.9-13.4c66.9,11.7,121.8,33.5,167.7,66.8
			c51.4,37.3,90.6,87.8,119.7,154.6L2720.3,701z"/>
	</g>
	<g transform="translate(192.82 163.996)">
		<path class="st1" d="M2661.4,706.8c-47.1-130.9-140.5-208.3-285.6-236.6c-128.5-25.1-281.1-9.8-428.6,5l-3,0.3
			c-175.1,17.5-292.3,6-368.9-36.2c-71.1-39.1-104.8-101.8-143.8-174.5c-41.3-76.9-88.2-164.1-190.9-250.8
			C959.8-223.1,744.8-241.8,613.9-215.8c-141.7,28.2-218.1,113.4-218.8,114.3l-1.7-1.5c0.8-0.9,77.6-86.7,220.1-115
			c83.6-16.6,173.2-10.5,266.2,18.2C995.9-164,1117.8-92.6,1242.1,12.3c103.1,87,150,174.4,191.4,251.5
			c38.9,72.3,72.4,134.8,142.9,173.6c76.2,41.9,193,53.3,367.6,35.9l3-0.3c147.7-14.8,300.4-30.1,429.3-4.9
			c145.9,28.5,239.9,106.3,287.2,238L2661.4,706.8z"/>
	</g>
	<g transform="translate(230.568 213.141)">
		<path class="st1" d="M2602.5,713.1c-39.7-136.7-131.9-219.3-281.9-252.5c-132.9-29.4-292.3-16.5-433-5.1
			c-166.5,13.5-277.4,1-348.9-39.2c-66.3-37.3-96.5-95.9-131.5-163.7c-40.7-78.9-86.8-168.3-201.5-257.3
			c-281-218-486.5-235.6-609.3-212.1c-133.1,25.5-200.6,103.5-201.3,104.3l-1.7-1.4c0.7-0.8,68.6-79.3,202.4-105
			c78.5-15.1,164-9.3,254.2,17.2c112.6,33.1,232.7,98.8,357.1,195.3c115.1,89.3,161.4,178.9,202.1,258.1
			c34.8,67.5,64.8,125.8,130.6,162.8c71.1,40,181.5,52.4,347.6,38.9c140.8-11.4,300.4-24.3,433.7,5.1
			c150.9,33.4,243.7,116.5,283.6,254L2602.5,713.1z"/>
	</g>
</g>
</svg>
