<?xml version="1.0" encoding="utf-8"?>
<!-- Generator: Adobe Illustrator 25.0.0, SVG Export Plug-In . SVG Version: 6.00 Build 0)  -->
<svg version="1.1" id="_019---Mobile-Auction" xmlns="http://www.w3.org/2000/svg" xmlns:xlink="http://www.w3.org/1999/xlink"
	 x="0px" y="0px" viewBox="0 0 100 100" style="enable-background:new 0 0 100 100;" xml:space="preserve">
<style type="text/css">
	.st0{fill:#094781;}
</style>
<path class="st0" d="M77.2,84V16c0-3.8-3-6.8-6.8-6.8H29.6c-3.8,0-6.8,3-6.8,6.8v68c0,3.8,3,6.8,6.8,6.8h40.8
	C74.1,90.8,77.2,87.7,77.2,84z M60.9,11.9v1.4c0,0.8-0.6,1.4-1.4,1.4h-19c-0.8,0-1.4-0.6-1.4-1.4l0,0v-1.4H60.9z M29.6,11.9h6.8v1.4
	c0,2.3,1.8,4.1,4.1,4.1l0,0h19c2.3,0,4.1-1.8,4.1-4.1c0,0,0,0,0,0v-1.4h6.8c2.3,0,4.1,1.8,4.1,4.1v61.2H25.5V16
	C25.5,13.8,27.4,11.9,29.6,11.9C29.6,11.9,29.6,11.9,29.6,11.9z M25.5,84v-4.1h48.9V84c0,2.3-1.8,4.1-4.1,4.1H59.3
	c0.2-0.4,0.2-0.9,0.3-1.4c0-2.3-1.8-4.1-4.1-4.1l0,0H44.6c-2.3,0-4.1,1.8-4.1,4.1c0,0.5,0.1,0.9,0.3,1.4H29.6
	C27.4,88.1,25.5,86.2,25.5,84L25.5,84z M44.6,88.1c-0.8,0-1.4-0.6-1.4-1.4s0.6-1.4,1.4-1.4h10.9c0.8,0,1.4,0.6,1.4,1.4
	s-0.6,1.4-1.4,1.4H44.6z M41,37.5l1.5,2l-12,8.9c-2.4,1.8-2.9,5.2-1,7.6c1.8,2.3,5.1,2.8,7.5,1.1l12-8.9l1.5,2l1.7,4.5
	c0.4,0.9,1.2,1.6,2.1,1.8c0.2,0.1,0.5,0.1,0.7,0.1c0.6,0,1.1-0.2,1.6-0.5l10.8-8c0.6-0.5,1-1.2,1.1-2.1c0-1-0.4-2-1.2-2.6l-3.7-2.9
	l-9.4-12.8l-1.7-4.5c-0.4-0.9-1.2-1.6-2.1-1.8c-0.8-0.2-1.6-0.1-2.3,0.4l-10.8,8c-0.6,0.5-1,1.2-1.1,2.1c0,1,0.4,2,1.2,2.6L41,37.5z
	 M35.3,55c-1.2,0.9-2.9,0.6-3.8-0.6c-0.9-1.2-0.6-2.9,0.6-3.8l12-8.9l3.2,4.4L35.3,55z M65.8,46.1L55,54c-0.1,0-0.3-0.1-0.3-0.2
	l-1.4-3.6l9.3-6.8l3,2.3C65.7,45.8,65.7,45.9,65.8,46.1L65.8,46.1z M52.7,30.4l8.1,11L52,47.8l-8.1-11L52.7,30.4z M49.6,24.2
	c0.1,0,0.3,0.1,0.3,0.2l1.4,3.6L42,34.8l-3-2.3c-0.1-0.1-0.2-0.3-0.2-0.4L49.6,24.2z M67.7,62.2c0-1.5-1.2-2.7-2.7-2.7h0H51.4
	c-1.5,0-2.7,1.2-2.7,2.7l0,0V65c-2.3,0-4.1,1.8-4.1,4.1v2.7c0,0.8,0.6,1.4,1.4,1.4h0h24.5c0.8,0,1.4-0.6,1.4-1.4l0,0V69
	c0-2.3-1.8-4.1-4.1-4.1V62.2z M69,69v1.4H47.3V69c0-0.8,0.6-1.4,1.4-1.4h0h19C68.4,67.7,69,68.3,69,69C69,69,69,69,69,69z M51.4,65
	v-2.7H65V65H51.4z M29.6,20.1c0.8,0,1.4-0.6,1.4-1.4V16c0-0.8-0.6-1.4-1.4-1.4c-0.8,0-1.4,0.6-1.4,1.4v2.7
	C28.3,19.5,28.9,20.1,29.6,20.1C29.6,20.1,29.6,20.1,29.6,20.1z M29.6,43.2c0.8,0,1.4-0.6,1.4-1.4V24.2c0-0.8-0.6-1.4-1.4-1.4
	c-0.8,0-1.4,0.6-1.4,1.4v17.7C28.3,42.6,28.9,43.2,29.6,43.2C29.6,43.2,29.6,43.2,29.6,43.2z"/>
</svg>
