<?xml version="1.0" encoding="utf-8"?>
<!-- Generator: Adobe Illustrator 25.0.0, SVG Export Plug-In . SVG Version: 6.00 Build 0)  -->
<svg version="1.1" id="Layer_1" xmlns="http://www.w3.org/2000/svg" xmlns:xlink="http://www.w3.org/1999/xlink" x="0px" y="0px"
	 viewBox="0 0 100 100" style="enable-background:new 0 0 100 100;" xml:space="preserve">
<style type="text/css">
	.st0{fill:#094781;}
</style>
<path class="st0" d="M31.2,44.1c0.8,0,1.5-0.7,1.5-1.5c0-0.8-0.7-1.5-1.5-1.5c-0.8,0-1.5,0.7-1.5,1.5c0,0.4,0.2,0.8,0.4,1.1
	C30.4,43.9,30.8,44.1,31.2,44.1z M52.8,42.1c-0.6-0.6-1.5-0.6-2.1,0s-0.6,1.5,0,2.1c0.6,0.6,1.5,0.6,2.1,0c0.3-0.3,0.4-0.7,0.4-1.1
	C53.2,42.8,53.1,42.4,52.8,42.1z M57,39.4c0.8,0,1.5-0.7,1.5-1.5c0-0.8-0.7-1.5-1.5-1.5c-0.8,0-1.5,0.7-1.5,1.5
	c0,0.4,0.2,0.8,0.4,1.1C56.2,39.2,56.6,39.4,57,39.4z M84.1,48.5h-4.2l7.4-7.4c1.8-1.8,1.8-4.6,0-6.4L80.6,28
	c-0.6-0.6-1.5-0.6-2.1,0c-1.8,1.8-4.6,1.8-6.4,0c-1.8-1.8-1.8-4.6,0-6.4l0,0c0.6-0.6,0.6-1.5,0-2.1c0,0,0,0,0,0l-6.7-6.7
	c-1.8-1.8-4.6-1.8-6.4,0c0,0,0,0,0,0L34,37.6c-0.6,0.6-0.6,1.5,0,2.1s1.5,0.6,2.1,0L61,14.9c0.6-0.6,1.5-0.6,2.1,0c0,0,0,0,0,0
	l5.8,5.8c-2.3,3.5-1.3,8.2,2.1,10.4c2.5,1.7,5.8,1.7,8.3,0l5.8,5.8c0.6,0.6,0.6,1.5,0,2.1l-9.5,9.5H69l5-5c0.6-0.6,0.6-1.5,0-2.1
	L58.6,26.1c-0.6-0.6-1.5-0.6-2.1,0L34,48.5H15.9c-2.5,0-4.5,2-4.5,4.5v9.5c0,0.8,0.7,1.5,1.5,1.5c0,0,0,0,0,0c2.5,0,4.5,2.1,4.5,4.6
	c0,2.5-2,4.4-4.5,4.5c-0.8,0-1.5,0.7-1.5,1.5c0,0,0,0,0,0v9.5c0,2.5,2,4.5,4.5,4.5h68.1c2.5,0,4.5-2,4.5-4.5v-9.5
	c0-0.8-0.7-1.5-1.5-1.5c-2.5,0-4.5-2.1-4.5-4.6c0-2.5,2-4.4,4.5-4.5c0.8,0,1.5-0.7,1.5-1.5V53C88.6,50.5,86.6,48.5,84.1,48.5z
	 M57.5,29.3l13.2,13.2l-6,6h-6l4.4-4.4c0.6-0.6,0.6-1.5,0-2.1s-1.5-0.6-2.1,0l0,0l-6.6,6.6H38.3L57.5,29.3z M85.6,61.2
	c-4.1,0.8-6.7,4.8-5.9,8.9c0.6,3,2.9,5.3,5.9,5.9v8.1c0,0.8-0.7,1.5-1.5,1.5H15.9c-0.8,0-1.5-0.7-1.5-1.5v-8.1
	c4.1-0.8,6.7-4.8,5.9-8.9c-0.6-3-2.9-5.3-5.9-5.9V53c0-0.8,0.7-1.5,1.5-1.5h68.1c0.8,0,1.5,0.7,1.5,1.5L85.6,61.2z M43.6,66
	c0.6-0.6,0.6-1.5,0-2.1c-0.6-0.6-1.5-0.6-2.1,0c-0.6,0.6-0.6,1.5,0,2.1c0.3,0.3,0.7,0.4,1.1,0.4C42.9,66.4,43.3,66.3,43.6,66z
	 M58.5,66c0.6-0.6,0.6-1.5,0-2.1c-0.6-0.6-1.5-0.6-2.1,0c-0.6,0.6-0.6,1.5,0,2.1c0.3,0.3,0.7,0.4,1.1,0.4
	C57.9,66.4,58.2,66.3,58.5,66z M51.1,66c0.6-0.6,0.6-1.5,0-2.1c-0.6-0.6-1.5-0.6-2.1,0c-0.6,0.6-0.6,1.5,0,2.1
	c0.3,0.3,0.7,0.4,1.1,0.4C50.4,66.4,50.8,66.3,51.1,66z M35.1,66.4c0.8,0,1.5-0.7,1.5-1.5c0-0.8-0.7-1.5-1.5-1.5
	c-0.8,0-1.5,0.7-1.5,1.5c0,0.4,0.2,0.8,0.4,1.1C34.3,66.3,34.7,66.4,35.1,66.4z M66,66c0.6-0.6,0.6-1.5,0-2.1
	c-0.6-0.6-1.5-0.6-2.1,0c-0.6,0.6-0.6,1.5,0,2.1c0.3,0.3,0.7,0.4,1.1,0.4C65.3,66.4,65.7,66.3,66,66z M35.1,73.7h29.8
	c0.8,0,1.5-0.7,1.5-1.5c0-0.8-0.7-1.5-1.5-1.5H35.1c-0.8,0-1.5,0.7-1.5,1.5C33.6,73,34.3,73.7,35.1,73.7z M40.6,77.9
	c-0.8,0-1.5,0.7-1.5,1.5s0.7,1.5,1.5,1.5c0.8,0,1.5-0.7,1.5-1.5c0-0.4-0.2-0.8-0.4-1.1C41.3,78.1,41,77.9,40.6,77.9z M72.9,56.2
	H27.1c-0.8,0-1.5,0.7-1.5,1.5v21.7c0,0.8,0.7,1.5,1.5,1.5h6.3c0.8,0,1.5-0.7,1.5-1.5c0-0.8-0.7-1.5-1.5-1.5h-4.8V59.2h42.8v18.7
	H46.9c-0.8,0-1.5,0.7-1.5,1.5c0,0.8,0.7,1.5,1.5,1.5h26c0.8,0,1.5-0.7,1.5-1.5V57.7C74.4,56.9,73.7,56.2,72.9,56.2
	C72.9,56.2,72.9,56.2,72.9,56.2z"/>
</svg>
