<svg xmlns="http://www.w3.org/2000/svg" width="23.566" height="23.566" viewBox="0 0 23.566 23.566"><ellipse cx="11.783" cy="11.783" rx="11.783" ry="11.783" transform="translate(0 0)" fill="#00df76"/><path d="M255.7,0h-.016V23.566h.016A11.783,11.783,0,1,0,255.7,0Z" transform="translate(-243.95 0)" fill="#00ab5e"/><path d="M108.1,149.419l4.756,4.779a.529.529,0,0,0,.751,0l7.809-7.846a.536.536,0,0,0,0-.755l-1.421-1.428a.529.529,0,0,0-.751,0l-5.68,5.707a.529.529,0,0,1-.751,0l-2.545-2.557a.529.529,0,0,0-.741-.01l-1.416,1.346A.536.536,0,0,0,108.1,149.419Z" transform="translate(-102.96 -137.401)" fill="#fff5f5"/><path d="M260.973,144.168a.534.534,0,0,0-.755,0l-4.533,4.533v4.366l6.716-6.716a.534.534,0,0,0,0-.755Z" transform="translate(-243.931 -137.397)" fill="#dfebf1"/></svg>