<svg xmlns="http://www.w3.org/2000/svg" viewBox="0 0 100 100"><path d="M77.1,79.9a1.94,1.94,0,0,1-1.3-.3,1.13,1.13,0,0,0-1.5.4,1.1,1.1,0,0,0,.3,1.5,3.51,3.51,0,0,0,1.4.6v.3a1.13,1.13,0,0,0,1.2,1.1,1.11,1.11,0,0,0,1.1-1.1V82a3.26,3.26,0,0,0,2-2.4,2.8,2.8,0,0,0-1.9-3.2c-.6-.2-1.6-.4-1.8-.8a.42.42,0,0,1,.3-.6,1.73,1.73,0,0,1,1,.1,1.22,1.22,0,0,0,1.6,0c.9-.8-.1-1.7-.1-1.7a2.38,2.38,0,0,0-1.1-.6v-.3a1.13,1.13,0,0,0-1.2-1.1A1.11,1.11,0,0,0,76,72.5v.4A2.81,2.81,0,0,0,74.3,75a2.43,2.43,0,0,0,.8,2.4,9,9,0,0,0,2.4,1.2C78.4,78.8,77.9,79.9,77.1,79.9Zm-54.9,0a1.94,1.94,0,0,1-1.3-.3,1.13,1.13,0,0,0-1.5.4,1.1,1.1,0,0,0,.3,1.5,3.51,3.51,0,0,0,1.4.6v.3a1.13,1.13,0,0,0,1.2,1.1,1.11,1.11,0,0,0,1.1-1.1V82a3.26,3.26,0,0,0,2-2.4,2.8,2.8,0,0,0-1.9-3.2c-.6-.2-1.6-.4-1.8-.8A.42.42,0,0,1,22,75a1.73,1.73,0,0,1,1,.1,1.22,1.22,0,0,0,1.6,0c.9-.8-.1-1.7-.1-1.7a2.38,2.38,0,0,0-1.1-.6v-.3a1.13,1.13,0,0,0-1.2-1.1,1.11,1.11,0,0,0-1.1,1.1v.4A2.81,2.81,0,0,0,19.4,75a2.43,2.43,0,0,0,.8,2.4,9,9,0,0,0,2.4,1.2C23.6,78.8,23.1,79.9,22.2,79.9ZM77.1,25.1a1.94,1.94,0,0,1-1.3-.3,1.13,1.13,0,0,0-1.5.4,1.1,1.1,0,0,0,.3,1.5,3.51,3.51,0,0,0,1.4.6v.3a1.13,1.13,0,0,0,1.2,1.1,1.11,1.11,0,0,0,1.1-1.1v-.5a3.26,3.26,0,0,0,2-2.4,2.8,2.8,0,0,0-1.9-3.2c-.6-.2-1.6-.4-1.8-.8a.42.42,0,0,1,.3-.6,1.73,1.73,0,0,1,1,.1,1.22,1.22,0,0,0,1.6,0c.9-.8-.1-1.7-.1-1.7a2.38,2.38,0,0,0-1.1-.6v-.3a1.13,1.13,0,0,0-1.2-1.1A1.11,1.11,0,0,0,76,17.6V18a2.81,2.81,0,0,0-1.7,2.1,2.43,2.43,0,0,0,.8,2.4,9,9,0,0,0,2.4,1.2C78.4,23.9,77.9,25.1,77.1,25.1ZM69.6,44.2A1.13,1.13,0,0,0,70.7,43a1.42,1.42,0,0,0-.2-.6l-5-7.1a1.19,1.19,0,0,0-.9-.5H34.7a1.05,1.05,0,0,0-.9.5l-5,7.1a1.15,1.15,0,0,0,.3,1.6,1.42,1.42,0,0,0,.6.2h3.8V64a1.28,1.28,0,0,0,1.1,1.2h30a1.11,1.11,0,0,0,1.1-1.1V44.2Zm-5.5-7.1,3.4,4.8H61.3l-3.4-4.8Zm-28.8,0H53.6l-3.4,4.8H32ZM63.6,62.9H56.9V59.1a1.15,1.15,0,1,0-2.3-.1v3.9H35.8V44.2h15a1.05,1.05,0,0,0,.9-.5l2.9-4.1V52.3a1.13,1.13,0,0,0,1.2,1.1,1.11,1.11,0,0,0,1.1-1.1V39.6l2.9,4.1a1.19,1.19,0,0,0,.9.5h2.8l.1,18.7ZM22.3,33.6a11,11,0,0,0,0-22,11.24,11.24,0,0,0-5.9,1.7,1.11,1.11,0,0,0-.3,1.6,1,1,0,0,0,1.5.3A8.78,8.78,0,0,1,29.7,18a8.64,8.64,0,0,1-2.8,12A8.76,8.76,0,0,1,14.2,19.1a1.14,1.14,0,0,0-2.1-.9,11.05,11.05,0,0,0,5.8,14.5A11.17,11.17,0,0,0,22.3,33.6Zm-.1-8.5a1.94,1.94,0,0,1-1.3-.3,1.15,1.15,0,0,0-1.3,1.9,3.51,3.51,0,0,0,1.4.6v.3a1.13,1.13,0,0,0,1.2,1.1,1.11,1.11,0,0,0,1.1-1.1v-.5a3.26,3.26,0,0,0,2-2.4,2.8,2.8,0,0,0-1.9-3.2c-.6-.2-1.6-.4-1.8-.8a.42.42,0,0,1,.3-.6,1.73,1.73,0,0,1,1,.1,1.22,1.22,0,0,0,1.6,0c.9-.8-.1-1.7-.1-1.7a2.38,2.38,0,0,0-1.1-.6v-.3a1.13,1.13,0,0,0-1.2-1.1A1.11,1.11,0,0,0,21,17.6V18a2.81,2.81,0,0,0-1.7,2.1,2.43,2.43,0,0,0,.8,2.4,9,9,0,0,0,2.4,1.2C23.6,23.9,23.1,25.1,22.2,25.1Zm54.9,8.5a11,11,0,1,0-11-11h0A11,11,0,0,0,77.1,33.6Zm0-19.8a8.8,8.8,0,1,1-8.8,8.8h0a8.88,8.88,0,0,1,8.8-8.8ZM22.3,66.4a11,11,0,1,0,11,11h0A11,11,0,0,0,22.3,66.4Zm0,19.8a8.8,8.8,0,1,1,8.8-8.8h0A8.81,8.81,0,0,1,22.3,86.2ZM77.1,66.4a11,11,0,1,0,11,11h0A10.91,10.91,0,0,0,77.1,66.4Zm0,19.8a8.8,8.8,0,1,1,8.8-8.8h0A8.75,8.75,0,0,1,77.1,86.2Zm-37.6-68a9,9,0,0,1,8.8,7l-.5-.5a1.13,1.13,0,1,0-1.6,1.6l2.7,2.8a1.24,1.24,0,0,0,1.7,0l.1-.1,2.5-2.6a1.12,1.12,0,0,0-.1-1.6,1.09,1.09,0,0,0-1.5,0l-.8.9a11.38,11.38,0,0,0-11.2-9.6,1.2,1.2,0,0,0-1.1,1.2C38.5,17.7,39,18.1,39.5,18.2ZM60,81.8a9,9,0,0,1-8.8-7l.5.5a1.13,1.13,0,1,0,1.7-1.5h0L50.6,71a1.14,1.14,0,0,0-.8-.3h0a1.39,1.39,0,0,0-1,.5l-2.5,2.6a1.13,1.13,0,0,0,1.6,1.6h0l.8-.9a11.38,11.38,0,0,0,11.2,9.6A1.28,1.28,0,0,0,61.1,83c.1-.6-.4-1.1-1.1-1.2Zm23.8-42a1.13,1.13,0,0,0-1.2-1.1,1.11,1.11,0,0,0-1.1,1.1,9,9,0,0,1-7,8.8l.5-.5a1.13,1.13,0,1,0-1.6-1.6l-2.8,2.7a1.24,1.24,0,0,0,0,1.7l.1.1,2.6,2.5a1.12,1.12,0,0,0,1.6-.1,1.09,1.09,0,0,0,0-1.5l-.7-.9A11.38,11.38,0,0,0,83.8,39.8ZM28.5,49l-2.6-2.5a1.12,1.12,0,0,0-1.6.1,1.21,1.21,0,0,0,0,1.6l.9.8a11.38,11.38,0,0,0-9.6,11.2,1.13,1.13,0,0,0,1.2,1.1,1.11,1.11,0,0,0,1.1-1.1,9,9,0,0,1,7-8.8l-.5.5a1.21,1.21,0,0,0,0,1.6,1.09,1.09,0,0,0,1.5,0l2.8-2.7a1.24,1.24,0,0,0,0-1.7c-.1,0-.2,0-.2-.1Z"/></svg>