<svg xmlns="http://www.w3.org/2000/svg" viewBox="0 0 100 100"><path d="M79.86,87.53H19.94a6.63,6.63,0,0,1-6.62-6.61V45a6.63,6.63,0,0,1,6.62-6.61H36.16a1.26,1.26,0,0,1,1.23,1.29,1.25,1.25,0,0,1-1.23,1.23H19.94A4.1,4.1,0,0,0,15.85,45v36A4.1,4.1,0,0,0,19.94,85H79.86A4.1,4.1,0,0,0,84,80.92V45a4.09,4.09,0,0,0-4.09-4.09H62.51a1.26,1.26,0,0,1,0-2.52H79.86A6.61,6.61,0,0,1,86.47,45v36A6.62,6.62,0,0,1,79.86,87.53Zm5.35-32.79H14.59A1.26,1.26,0,0,1,13.3,53.5a1.25,1.25,0,0,1,1.23-1.28H85.21a1.26,1.26,0,0,1,1.29,1.23,1.27,1.27,0,0,1-1.24,1.29ZM63.77,47.17H33.5a1.26,1.26,0,0,1,0-2.52H63.77a1.26,1.26,0,0,1,0,2.52Zm-4.12,0H38.88a1.27,1.27,0,0,1-1-.48,14.51,14.51,0,1,1,22.75,0A1.27,1.27,0,0,1,59.65,47.17ZM39.51,44.65H59a11.77,11.77,0,0,0,2.23-6.94,12,12,0,1,0-24,0,11.83,11.83,0,0,0,2.22,6.94Zm9.13-24a1.26,1.26,0,0,1-1.26-1.26h0v-6.3a1.26,1.26,0,0,1,1.23-1.29,1.27,1.27,0,0,1,1.29,1.23v6.36a1.27,1.27,0,0,1-1.26,1.27Zm12,2a1.26,1.26,0,0,1-1.27-1.26,1.29,1.29,0,0,1,.22-.71l3.54-5.21a1.26,1.26,0,0,1,2.09,1.41l-3.54,5.22A1.26,1.26,0,0,1,60.61,22.71Zm6.88,10.36a1.26,1.26,0,0,1-.25-2.5l6.18-1.24a1.27,1.27,0,0,1,1.51,1,1.25,1.25,0,0,1-1,1.5l-.06,0-6.18,1.24Zm-37.7,0-.25,0-6.18-1.24a1.26,1.26,0,0,1,.49-2.48L30,30.57a1.26,1.26,0,0,1-.24,2.5Zm8.14-10.36a1.26,1.26,0,0,1-1-.55l-3.54-5.22a1.26,1.26,0,0,1,.32-1.75,1.25,1.25,0,0,1,1.75.31l0,0L39,20.74a1.25,1.25,0,0,1-1,2ZM65,82.48a5,5,0,1,1,5-5A5,5,0,0,1,65,82.48Zm0-7.57a2.53,2.53,0,1,0,2.52,2.53A2.52,2.52,0,0,0,65,74.91Zm11.35,7.57a5,5,0,1,1,5.05-5h0A5.05,5.05,0,0,1,76.38,82.48Zm0-7.57a2.53,2.53,0,1,0,2.52,2.53,2.52,2.52,0,0,0-2.52-2.53ZM52.83,38.29A2.64,2.64,0,0,1,50.35,40v1.13a.38.38,0,0,1-.37.37h-.75a.38.38,0,0,1-.38-.37V40a3.28,3.28,0,0,1-2-.7.39.39,0,0,1,0-.58l.82-.79a.36.36,0,0,1,.46,0,1.4,1.4,0,0,0,.8.25h1.55a.69.69,0,0,0,.69-.69.7.7,0,0,0-.49-.67l-2.41-.7a2.68,2.68,0,0,1-2-2.26A2.57,2.57,0,0,1,48.79,31h.06V29.88a.38.38,0,0,1,.38-.38H50a.38.38,0,0,1,.37.38V31a3.26,3.26,0,0,1,2,.71.38.38,0,0,1,0,.57l-.81.8a.36.36,0,0,1-.46,0,1.42,1.42,0,0,0-.8-.24H48.79a.69.69,0,0,0-.19,1.35l2.53.74A2.58,2.58,0,0,1,52.83,38.29Z"/></svg>