<svg xmlns="http://www.w3.org/2000/svg" viewBox="0 0 100 100"><path d="M81.77,40H65.05a1.67,1.67,0,1,0,0,3.34H81.77a5,5,0,0,1,5,5V81.77a5,5,0,0,1-5,5H48.33a5,5,0,0,1-5-5V68.39a1.67,1.67,0,0,0-3.34,0V81.77a8.37,8.37,0,0,0,8.36,8.36H81.77a8.38,8.38,0,0,0,8.36-8.36V48.33A8.37,8.37,0,0,0,81.77,40ZM35,56.69H33.28a1.67,1.67,0,0,0,0,3.34H35a1.67,1.67,0,0,0,0-3.34ZM19.7,9.87H18.23a8.55,8.55,0,0,0-2.35.33,1.67,1.67,0,0,0,.47,3.28,1.84,1.84,0,0,0,.47-.06,4.5,4.5,0,0,1,1.41-.2h1.48a1.68,1.68,0,0,0,0-3.35ZM13.21,50.19V46.81a1.67,1.67,0,0,0-3.34,0v3.38a1.67,1.67,0,0,0,3.34,0Zm-1.67-8.47a1.67,1.67,0,0,0,1.67-1.67V36.67a1.68,1.68,0,0,0-3.35,0v3.38a1.67,1.67,0,0,0,1.67,1.67Zm0-20.28a1.67,1.67,0,0,0,1.67-1.67h0V18.23a4.92,4.92,0,0,1,.19-1.37,1.67,1.67,0,1,0-3.19-1l0,.09a8.69,8.69,0,0,0-.31,2.27v1.53a1.67,1.67,0,0,0,1.66,1.68Zm0,10.14a1.67,1.67,0,0,0,1.67-1.67V26.53a1.68,1.68,0,0,0-3.35,0v3.38a1.67,1.67,0,0,0,1.67,1.67ZM16.86,56.5a5,5,0,0,1-2.16-1.27,1.67,1.67,0,1,0-2.36,2.37,8.23,8.23,0,0,0,3.6,2.11,1.67,1.67,0,1,0,.92-3.21ZM58.09,18a1.5,1.5,0,0,0,.47-.08,1.67,1.67,0,0,0,1.14-2.06h0a8.35,8.35,0,0,0-2.14-3.59,1.67,1.67,0,0,0-2.35,2.38h0a5.09,5.09,0,0,1,1.28,2.15A1.68,1.68,0,0,0,58.09,18Zm-8-8.15H46.75a1.67,1.67,0,0,0,0,3.34h3.38a1.67,1.67,0,0,0,0-3.34ZM26.52,56.69H23.14a1.67,1.67,0,0,0,0,3.34h3.38a1.67,1.67,0,0,0,0-3.34ZM58.36,21.41a1.67,1.67,0,0,0-1.67,1.67v3.38a1.67,1.67,0,1,0,3.34,0h0V23.08a1.66,1.66,0,0,0-1.66-1.67ZM40,9.87H36.61a1.67,1.67,0,0,0,0,3.34H40a1.67,1.67,0,0,0,0-3.34Zm-10.14,0H26.47a1.67,1.67,0,1,0,0,3.34h3.38a1.67,1.67,0,1,0,0-3.34ZM58.36,31.61a1.67,1.67,0,0,0-1.67,1.67V35A1.67,1.67,0,1,0,60,35h0V33.28a1.67,1.67,0,0,0-1.67-1.67ZM64.73,39l-5.19-5.18a5.21,5.21,0,0,0-7.38,0,5.3,5.3,0,0,0-1.28,2.1,5.21,5.21,0,0,0-6.84,4,5.25,5.25,0,0,0-4.42,1.47,5.2,5.2,0,0,0-1.51,4.06,5.22,5.22,0,0,0-3,8.86l1.5,1.5v6A8.38,8.38,0,0,0,45,70.07h6.86A18.24,18.24,0,0,0,64.73,39ZM51.84,66.72H45a5,5,0,0,1-5-5V59.05l3.83,3.84a1.68,1.68,0,0,0,2.37-2.37h0l-8.68-8.68a1.88,1.88,0,0,1,0-2.65,1.91,1.91,0,0,1,2.65,0l3.66,3.67a1.68,1.68,0,0,0,2.37-2.37L42,46.31a1.86,1.86,0,0,1,0-2.65h0a1.91,1.91,0,0,1,2.65,0l2.51,2.51a1.67,1.67,0,0,0,2.36-2.36l-1.67-1.67a1.89,1.89,0,0,1,0-2.66h0a1.93,1.93,0,0,1,2.65,0l1.67,1.67a1.67,1.67,0,1,0,2.36-2.36h0a1.88,1.88,0,0,1,0-2.65h0a1.89,1.89,0,0,1,2.66,0h0l5.18,5.18a14.88,14.88,0,0,1-10.53,25.4Z"/></svg>