<svg xmlns="http://www.w3.org/2000/svg" viewBox="0 0 100 100"><path d="M81.78,17H74.15V15.68a3.82,3.82,0,0,0-7.63,0V17H53.81V15.68a3.81,3.81,0,0,0-7.62,0V17H33.48V15.68a3.82,3.82,0,0,0-7.63-.39,2.54,2.54,0,0,0,0,.39h0V17H18.22a6.35,6.35,0,0,0-6.35,6.35h0V81.78a6.35,6.35,0,0,0,6.35,6.35H81.78a6.35,6.35,0,0,0,6.35-6.35V23.31A6.35,6.35,0,0,0,81.78,17ZM69.07,15.68a1.27,1.27,0,1,1,2.54,0v7.63a1.27,1.27,0,0,1-2.54,0Zm-20.34,0a1.27,1.27,0,0,1,2.54,0v7.63a1.27,1.27,0,1,1-2.54,0Zm-20.34,0a1.27,1.27,0,0,1,2.54,0h0v7.63a1.27,1.27,0,0,1-2.54,0ZM18.22,19.49h7.63v3.82a3.82,3.82,0,0,0,7.63,0V19.49H46.19v3.82a3.81,3.81,0,1,0,7.62,0h0V19.49H66.52v3.82a3.82,3.82,0,0,0,7.63,0V19.49h7.63a3.82,3.82,0,0,1,3.81,3.82V32.2H14.41V23.31A3.82,3.82,0,0,1,18.22,19.49Zm63.56,66.1H18.22a3.83,3.83,0,0,1-3.81-3.81v-47H85.59v47A3.83,3.83,0,0,1,81.78,85.59ZM79.24,43.64H74.15a1.27,1.27,0,0,0-1.27,1.27h0V50a1.27,1.27,0,0,0,1.27,1.27h5.09A1.27,1.27,0,0,0,80.51,50h0V44.91a1.27,1.27,0,0,0-1.27-1.27ZM78,48.73H75.42V46.19H78ZM53.81,69.07H48.73a1.27,1.27,0,0,0-1.27,1.27h0v5.08a1.27,1.27,0,0,0,1.27,1.27h5.08a1.27,1.27,0,0,0,1.27-1.27h0V70.34A1.27,1.27,0,0,0,53.81,69.07Zm-1.27,5.08H50V71.61h2.54ZM41.1,43.64H36a1.27,1.27,0,0,0-1.27,1.27h0V50A1.27,1.27,0,0,0,36,51.27h5.1A1.27,1.27,0,0,0,42.37,50h0V44.91a1.27,1.27,0,0,0-1.27-1.27Zm-1.27,5.09H37.29V46.19h2.54ZM28.39,56.36H23.31A1.26,1.26,0,0,0,22,57.57v.06h0v5.08A1.27,1.27,0,0,0,23.25,64h5.14a1.27,1.27,0,0,0,1.27-1.27h0v-5.1a1.27,1.27,0,0,0-1.27-1.27Zm-1.27,5.08H24.58V58.9h2.54Zm14-5.08H36a1.27,1.27,0,0,0-1.27,1.27h0v5.08A1.27,1.27,0,0,0,36,64H41.1a1.27,1.27,0,0,0,1.27-1.27h0v-5.1a1.27,1.27,0,0,0-1.27-1.27Zm-1.27,5.08H37.29V58.9h2.54ZM28.39,69.07H23.31A1.27,1.27,0,0,0,22,70.3v0h0v5.08a1.27,1.27,0,0,0,1.27,1.27h5.08a1.27,1.27,0,0,0,1.27-1.27h0V70.34A1.26,1.26,0,0,0,28.39,69.07Zm-1.27,5.08H24.58V71.61h2.54Zm14-5.08H36a1.27,1.27,0,0,0-1.27,1.27h0v5.08A1.27,1.27,0,0,0,36,76.69h5.1a1.27,1.27,0,0,0,1.27-1.27h0V70.34A1.27,1.27,0,0,0,41.1,69.07Zm-1.27,5.08H37.29V71.61h2.54ZM68,48.88l-6.36-1-2.85-6.07a1.26,1.26,0,0,0-1.66-.64,1.29,1.29,0,0,0-.64.64l-2.86,6.08-6.35,1a1.27,1.27,0,0,0-1.07,1.44,1.23,1.23,0,0,0,.35.7l4.64,4.75-1.1,6.73a1.26,1.26,0,0,0,1,1.46,1.34,1.34,0,0,0,.81-.14l5.67-3.14,5.67,3.14a1.28,1.28,0,0,0,1.73-.5,1.24,1.24,0,0,0,.14-.82L64,55.78,68.7,51a1.29,1.29,0,0,0,0-1.8,1.3,1.3,0,0,0-.69-.35Zm-6.2,5.58a1.27,1.27,0,0,0-.34,1.1l.78,4.77-4-2.21a1.28,1.28,0,0,0-1.23,0l-4,2.21.78-4.77a1.31,1.31,0,0,0-.35-1.1L50.1,51l4.58-.69a1.32,1.32,0,0,0,1-.72l2-4.25,2,4.25a1.28,1.28,0,0,0,1,.71l4.58.7Zm17.44,1.9H74.15a1.27,1.27,0,0,0-1.27,1.27h0v5.08A1.27,1.27,0,0,0,74.13,64h5.11a1.27,1.27,0,0,0,1.27-1.27h0v-5.1a1.27,1.27,0,0,0-1.27-1.27ZM78,61.44H75.42V58.9H78Zm1.24,7.63H74.15a1.27,1.27,0,0,0-1.27,1.27h0v5.08a1.27,1.27,0,0,0,1.27,1.27h5.09a1.27,1.27,0,0,0,1.27-1.27h0V70.34a1.27,1.27,0,0,0-1.27-1.27ZM78,74.15H75.42V71.61H78ZM66.53,69.07H61.44a1.27,1.27,0,0,0-1.27,1.27h0v5.08a1.27,1.27,0,0,0,1.27,1.27h5.08a1.27,1.27,0,0,0,1.28-1.26h0V70.34A1.27,1.27,0,0,0,66.53,69.07Zm-1.28,5.08H62.71V71.61h2.54Z"/></svg>