<svg xmlns="http://www.w3.org/2000/svg" viewBox="0 0 100 100"><path d="M77.18,84V16a6.8,6.8,0,0,0-6.79-6.8H29.61A6.8,6.8,0,0,0,22.82,16V84a6.79,6.79,0,0,0,6.79,6.79H70.39A6.79,6.79,0,0,0,77.18,84Zm-16.31-72V13.3a1.36,1.36,0,0,1-1.36,1.36h-19a1.36,1.36,0,0,1-1.36-1.36h0V11.94Zm-31.26,0h6.8V13.3a4.08,4.08,0,0,0,4.08,4.08h19a4.08,4.08,0,0,0,4.08-4.08h0V11.94h6.8A4.08,4.08,0,0,1,74.47,16V77.18H25.53V16a4.08,4.08,0,0,1,4.08-4.08ZM25.53,84V79.9H74.47V84a4.08,4.08,0,0,1-4.08,4.08H59.26a3.76,3.76,0,0,0,.25-1.36,4.08,4.08,0,0,0-4.07-4.08H44.56a4.08,4.08,0,0,0-4.07,4.08,3.76,3.76,0,0,0,.25,1.36H29.61A4.08,4.08,0,0,1,25.53,84Zm19,4.08a1.36,1.36,0,1,1,0-2.72H55.44a1.36,1.36,0,1,1,0,2.72ZM41,37.5l1.5,2-12,8.86a5.44,5.44,0,0,0,6.44,8.76L49,48.3l1.5,2,1.68,4.46a3.29,3.29,0,0,0,2.13,1.82,2.84,2.84,0,0,0,.72.09,2.54,2.54,0,0,0,1.55-.5l10.85-8a2.69,2.69,0,0,0,1.07-2.05,3.32,3.32,0,0,0-1.18-2.64l-3.68-2.87L54.15,27.83l-1.68-4.46a3.33,3.33,0,0,0-2.13-1.82,2.65,2.65,0,0,0-2.28.41l-10.84,8A2.69,2.69,0,0,0,36.15,32a3.36,3.36,0,0,0,1.18,2.64ZM35.31,55a2.72,2.72,0,0,1-3.23-4.38l12.05-8.85,3.22,4.38Zm30.47-8.9L55,54a.43.43,0,0,1-.34-.24L53.3,50.17l9.29-6.83,3,2.3a.89.89,0,0,1,.24.42ZM52.66,30.39l8.05,11L52,47.78l-8.05-11Zm-3-6.21a.47.47,0,0,1,.34.24L51.31,28,42,34.84l-3-2.31a.86.86,0,0,1-.24-.41ZM67.67,62.23A2.72,2.72,0,0,0,65,59.51H51.36a2.72,2.72,0,0,0-2.72,2.72h0V65A4.08,4.08,0,0,0,44.56,69v2.72a1.36,1.36,0,0,0,1.36,1.36H70.39a1.36,1.36,0,0,0,1.36-1.36h0V69A4.08,4.08,0,0,0,67.67,65ZM69,69v1.36H47.28V69a1.36,1.36,0,0,1,1.36-1.36h19A1.36,1.36,0,0,1,69,69ZM51.36,65V62.23H65V65ZM29.61,20.1A1.36,1.36,0,0,0,31,18.74V16a1.36,1.36,0,1,0-2.72,0v2.72a1.36,1.36,0,0,0,1.36,1.36Zm0,23.1A1.36,1.36,0,0,0,31,41.84V24.17a1.36,1.36,0,0,0-2.72,0V41.84a1.36,1.36,0,0,0,1.36,1.36Z"/></svg>