<svg xmlns="http://www.w3.org/2000/svg" viewBox="0 0 100 100"><path d="M31.19,44.1a1.51,1.51,0,1,0-1.51-1.51,1.52,1.52,0,0,0,1.51,1.51Zm21.59-2a1.49,1.49,0,1,0,.45,1.06A1.5,1.5,0,0,0,52.78,42.1ZM57,39.4a1.51,1.51,0,1,0-1.51-1.51A1.54,1.54,0,0,0,55.93,39,1.52,1.52,0,0,0,57,39.4Zm27.07,9.09h-4.2l7.4-7.4a4.52,4.52,0,0,0,0-6.4L80.56,28a1.51,1.51,0,0,0-2.14,0A4.52,4.52,0,1,1,72,21.58h0a1.5,1.5,0,0,0,0-2.13h0l-6.72-6.72a4.53,4.53,0,0,0-6.39,0h0L34,37.63a1.51,1.51,0,0,0,2.14,2.13l24.9-24.9a1.52,1.52,0,0,1,2.13,0h0l5.75,5.76A7.54,7.54,0,0,0,79.38,31.07l5.76,5.75a1.51,1.51,0,0,1,0,2.14L75.6,48.49H69l5-5a1.5,1.5,0,0,0,0-2.13L58.59,26.06a1.5,1.5,0,0,0-2.13,0L34,48.49H15.93A4.53,4.53,0,0,0,11.41,53v9.5A1.5,1.5,0,0,0,12.92,64h0a4.53,4.53,0,0,1,0,9,1.5,1.5,0,0,0-1.51,1.5h0v9.5a4.52,4.52,0,0,0,4.52,4.52H84.07a4.52,4.52,0,0,0,4.52-4.52v-9.5a1.5,1.5,0,0,0-1.5-1.5,4.53,4.53,0,0,1,0-9,1.51,1.51,0,0,0,1.5-1.51V53A4.53,4.53,0,0,0,84.07,48.49ZM57.53,29.26,70.74,42.47l-6,6h-6l4.42-4.42a1.51,1.51,0,0,0-2.13-2.13h0l-6.56,6.55H38.29Zm28.05,31.9a7.54,7.54,0,0,0,0,14.77v8.14a1.52,1.52,0,0,1-1.51,1.51H15.93a1.52,1.52,0,0,1-1.51-1.51V75.93a7.54,7.54,0,0,0,0-14.77V53a1.51,1.51,0,0,1,1.51-1.5H84.07A1.51,1.51,0,0,1,85.58,53ZM43.6,66a1.51,1.51,0,1,0-2.13,0,1.52,1.52,0,0,0,1.07.44A1.5,1.5,0,0,0,43.6,66Zm14.93,0a1.51,1.51,0,1,0-1.07.44A1.52,1.52,0,0,0,58.53,66Zm-7.46,0a1.51,1.51,0,1,0-2.14,0,1.52,1.52,0,0,0,2.14,0Zm-16,.44a1.51,1.51,0,1,0-1.51-1.51,1.5,1.5,0,0,0,1.51,1.51ZM66,66a1.51,1.51,0,1,0-2.13,0A1.51,1.51,0,0,0,66,66ZM35.08,73.67H64.93a1.51,1.51,0,0,0,0-3H35.08a1.51,1.51,0,0,0,0,3Zm5.47,4.22a1.51,1.51,0,1,0,1.51,1.51,1.5,1.5,0,0,0-1.51-1.51ZM72.92,56.18H27.09a1.51,1.51,0,0,0-1.51,1.51V79.4a1.51,1.51,0,0,0,1.51,1.51h6.28a1.51,1.51,0,0,0,0-3H28.59V59.2H71.41V77.89H46.93a1.51,1.51,0,0,0,0,3h26a1.51,1.51,0,0,0,1.51-1.51V57.69a1.51,1.51,0,0,0-1.5-1.51Z"/></svg>